<?xml version="1.0" encoding="utf-8"?>
<!-- Generator: Adobe Illustrator 14.0.0, SVG Export Plug-In . SVG Version: 6.00 Build 43363)  -->
<!DOCTYPE svg PUBLIC "-//W3C//DTD SVG 1.1//EN" "http://www.w3.org/Graphics/SVG/1.1/DTD/svg11.dtd">
<svg version="1.1" xmlns="http://www.w3.org/2000/svg" xmlns:xlink="http://www.w3.org/1999/xlink" x="0px" y="0px" width="731px"
	 height="252.776px" viewBox="0 0 731 252.776" enable-background="new 0 0 731 252.776" xml:space="preserve">
<g id="Calque_1">
	<g>
		<path fill="#FFFFFF" stroke="#FFFFFF" d="M82.514,110.125c0,0,6.592-36.97-20.683-38.004c0,0-23.656,0.129-25.207,33.998
			c-1.552,33.867,11.375,42.271,19.39,42.658S77.344,145.415,82.514,110.125z"/>
		<path fill="#570966" d="M10.555,112.064c0,0,0.301-52.353,42.658-55.456c0,0,39.803-4.523,39.642,58.429
			c0,0-7.497,50.026-42.916,50.414C49.939,165.451,13.356,168.942,10.555,112.064z"/>
		<rect x="83.214" y="59.065" fill="#570A66" width="24.249" height="103.672"/>
		<path fill="none" d="M158.135,114.262c0,0-2.457-40.848,24.948-42.141c0,0,23.526-1.81,21.329,34.126
			c0,0-1.422,41.286-25.336,42.554C179.076,148.801,159.815,151.878,158.135,114.262z"/>
		<path fill="#570A66" d="M132.282,115.296c0,0-3.749-55.599,46.148-58.759c0,0,33.351-3.16,34.515,55.269
			c0,0-2.585,51.402-40.978,53.688C171.967,165.493,136.03,166.744,132.282,115.296z"/>
		<path fill="#570A66" d="M204.557,70.569V59.065h24.158l-0.776,104.576c0,0,1.681,51.835-51.577,51.448
			c0,0-17.709,0.646-39.297-9.694l4.653-16.936c0,0,13.056,8.92,29.731,9.05c0,0,32.188,4.008,32.705-34.772l0.403-17.581V70.569z"
			/>
		<path fill="#FFFFFF" d="M275.768,103.792c0,0,3.232-29.796,24.302-32.123c0,0,22.041-2.327,15.318,20.294
			c0,0-3.943,10.535-20.489,11.829c0,0-10.859,1.421-17.968,0.904l-1.164,0.113V103.792z"/>
		<path fill="#570A66" d="M299.553,56.507c0,0,38.004-2.614,39.038,30.479c0,0-1.034,12.895-8.273,17.823
			c-7.239,4.928-18.226,12.684-38.133,13.072l-16.417,0.388c0,0,3.878,51.06,53.388,22.104l9.436,12.281
			c0,0-21.199,17.063-53.258,11.763c-32.058-5.3-35.419-42.328-34.902-53.934C250.948,98.879,256.249,63.774,299.553,56.507z"/>
		<path fill="#570A66" d="M351.13,59.279v13.876l14.995-0.259v90.357l24.303-0.388l0.258-90.229h22.105l0.129-13.443h-22.363
			l0.129-18.356c0.13-23.139,21.847-14.219,21.847-14.219l5.171-12.797c-47.313-17.709-51.578,26.112-51.578,26.112v19.261
			L351.13,59.279z"/>
		<path fill="#EB5B16" d="M424.683,36.185c0,0-0.646-20.941,22.105-29.731c0,0,21.07-5.3,19.52,17.968
			c0,0-3.361,21.846-24.045,25.982C442.263,50.404,426.492,52.859,424.683,36.185z"/>
		<polygon fill="#570A66" points="432.698,59.065 457.775,59.065 457.258,163.254 432.698,163.254 		"/>
		<path fill="#570A66" d="M489.833,59.065h24.819v19.519c0,0,20.424-36.583,52.095-15.512c0,0,23.008,18.227,18.614,56.749
			c0,0-3.878,43.046-41.623,45.761c0,0-15.255,1.163-29.215-11.247v53.904h-24.69V59.065z"/>
		<path fill="#570A66" d="M611.86,10.332h24.303v73.035c0,0,11.376-26.911,38.78-26.834c0,0,27.533-0.958,27.662,28.903v77.302
			h-23.913l-0.13-74.07c0,0-0.776-12.668-13.961-13.573c0,0-23.785-2.327-28.31,41.495l-0.258,46.149H611.86V10.332z"/>
		<path fill="#FFFFFF" d="M539.084,73.672c0,0,21.522-2.909,21.522,38.392c0,0,0,34.708-23.849,38.392
			c0,0-13.767,1.552-22.881-11.828v-24.043C513.877,114.585,517.755,74.254,539.084,73.672z"/>
	</g>
</g>
<g id="arc1">
</g>
<g id="arc_2">
</g>
<g id="rond">
</g>
<g id="texte">
	<g>
		<g>
			<path fill="#570A66" d="M345.111,178.673h5.248v30.291h-5.248V178.673z"/>
			<path fill="#570A66" d="M362.558,179.398c-1.152,3.925-3.029,8.276-4.608,10.922l-3.242,0.341
				c1.109-3.157,2.261-7.381,2.773-10.837L362.558,179.398z"/>
			<path fill="#570A66" d="M366.396,200.047c0.128,3.755,3.029,5.376,6.4,5.376c2.432,0,4.138-0.384,5.759-0.938l0.768,3.584
				c-1.792,0.768-4.267,1.322-7.253,1.322c-6.741,0-10.708-4.139-10.708-10.495c0-5.76,3.499-11.178,10.154-11.178
				c6.741,0,8.959,5.546,8.959,10.111c0,0.98-0.085,1.749-0.17,2.218H366.396z M375.526,196.378c0.042-1.92-0.811-5.077-4.309-5.077
				c-3.243,0-4.608,2.944-4.821,5.077H375.526z"/>
			<path fill="#570A66" d="M384.695,194.373c0-2.39-0.085-4.395-0.17-6.187h4.479l0.256,3.072h0.128
				c0.981-1.621,2.858-3.541,6.399-3.541c2.73,0,4.864,1.535,5.76,3.84h0.085c0.726-1.152,1.579-2.006,2.518-2.603
				c1.194-0.812,2.518-1.237,4.266-1.237c3.414,0,6.912,2.346,6.912,9.002v12.244h-5.119v-11.477c0-3.456-1.195-5.504-3.713-5.504
				c-1.791,0-3.113,1.28-3.668,2.773c-0.171,0.47-0.256,1.152-0.256,1.749v12.458h-5.12v-12.031c0-2.901-1.151-4.949-3.584-4.949
				c-1.962,0-3.285,1.536-3.797,2.944c-0.171,0.555-0.256,1.151-0.256,1.749v12.287h-5.12V194.373z"/>
			<path fill="#570A66" d="M420.869,195.099c0-2.73-0.085-4.949-0.17-6.912h4.607l0.256,3.2h0.086
				c1.535-2.347,3.967-3.669,7.124-3.669c4.778,0,8.746,4.096,8.746,10.58c0,7.509-4.735,11.136-9.472,11.136
				c-2.602,0-4.777-1.109-5.844-2.773h-0.086v10.751h-5.248V195.099z M426.117,200.261c0,0.512,0.043,0.981,0.128,1.45
				c0.555,2.134,2.39,3.669,4.65,3.669c3.327,0,5.29-2.772,5.29-6.868c0-3.67-1.791-6.656-5.162-6.656
				c-2.176,0-4.182,1.579-4.736,3.883c-0.084,0.427-0.17,0.896-0.17,1.322V200.261z"/>
			<path fill="#570A66" d="M445.824,178.673h5.248v30.291h-5.248V178.673z"/>
			<path fill="#570A66" d="M476.54,198.384c0,7.637-5.376,11.05-10.666,11.05c-5.845,0-10.41-4.011-10.41-10.709
				c0-6.826,4.479-11.007,10.751-11.007C472.401,187.718,476.54,192.069,476.54,198.384z M460.883,198.597
				c0,4.011,2.005,7.039,5.162,7.039c2.986,0,5.076-2.9,5.076-7.124c0-3.243-1.45-6.997-5.034-6.997
				C462.375,191.515,460.883,195.141,460.883,198.597z"/>
			<path fill="#570A66" d="M486.434,182.385c0,1.535-1.151,2.815-2.986,2.815c-1.749,0-2.9-1.28-2.9-2.815
				c0-1.621,1.194-2.858,2.943-2.858C485.282,179.526,486.392,180.764,486.434,182.385z M480.845,208.964v-20.777h5.248v20.777
				H480.845z"/>
		</g>
	</g>
</g>
<g id="texte_2">
	<g>
		<path fill="#570A66" d="M242.797,198.356c0,7.637-5.375,11.05-10.666,11.05c-5.845,0-10.41-4.011-10.41-10.709
			c0-6.826,4.48-11.007,10.751-11.007C238.659,187.69,242.797,192.042,242.797,198.356z M227.14,198.569
			c0,4.011,2.005,7.039,5.162,7.039c2.986,0,5.077-2.9,5.077-7.124c0-3.243-1.451-6.997-5.034-6.997
			C228.633,191.487,227.14,195.113,227.14,198.569z"/>
		<path fill="#570A66" d="M265.704,202.708c0,2.475,0.085,4.521,0.171,6.229h-4.565l-0.256-3.114h-0.128
			c-0.896,1.45-2.944,3.584-6.698,3.584s-7.21-2.262-7.21-9.045v-12.202h5.248v11.306c0,3.456,1.109,5.675,3.882,5.675
			c2.133,0,3.499-1.451,4.011-2.816c0.213-0.426,0.298-1.023,0.298-1.621v-12.543h5.248V202.708z"/>
		<path fill="#570A66" d="M274.703,188.159l3.371,10.538c0.597,1.835,1.024,3.498,1.408,5.205h0.128
			c0.384-1.707,0.854-3.328,1.408-5.205l3.328-10.538h5.503l-7.936,20.777h-5.162l-7.722-20.777H274.703z"/>
		<path fill="#570A66" d="M293.045,194.857c0-2.815-0.043-4.863-0.171-6.698h4.522l0.213,3.925h0.128
			c1.024-2.9,3.456-4.394,5.717-4.394c0.512,0,0.811,0.042,1.237,0.128v4.906c-0.469-0.086-0.938-0.128-1.579-0.128
			c-2.475,0-4.224,1.578-4.693,3.968c-0.085,0.469-0.128,1.023-0.128,1.578v10.794h-5.248V194.857z"/>
		<path fill="#570A66" d="M313.819,182.357c0,1.535-1.152,2.815-2.986,2.815c-1.75,0-2.901-1.28-2.901-2.815
			c0-1.621,1.195-2.858,2.944-2.858C312.667,179.499,313.776,180.736,313.819,182.357z M308.23,208.937v-20.777h5.248v20.777H308.23
			z"/>
		<path fill="#570A66" d="M319.151,194.857c0-2.815-0.043-4.863-0.171-6.698h4.522l0.213,3.925h0.128
			c1.024-2.9,3.456-4.394,5.717-4.394c0.512,0,0.811,0.042,1.237,0.128v4.906c-0.469-0.086-0.938-0.128-1.579-0.128
			c-2.474,0-4.224,1.578-4.693,3.968c-0.085,0.469-0.128,1.023-0.128,1.578v10.794h-5.248V194.857z"/>
	</g>
</g>
<g id="texte_3">
	<g>
		<g>
			<path fill="#ED5A17" d="M235.137,236.372c0,1.877,0.085,3.711,0.341,4.991h-4.735l-0.384-2.304h-0.128
				c-1.237,1.621-3.413,2.773-6.144,2.773c-4.181,0-6.527-3.029-6.527-6.187c0-5.205,4.65-7.893,12.33-7.851v-0.341
				c0-1.365-0.555-3.627-4.224-3.627c-2.048,0-4.181,0.641-5.589,1.536l-1.024-3.413c1.536-0.938,4.224-1.834,7.509-1.834
				c6.656,0,8.576,4.224,8.576,8.788V236.372z M230.017,231.209c-3.711-0.042-7.252,0.726-7.252,3.883
				c0,2.048,1.322,2.986,2.986,2.986c2.133,0,3.626-1.365,4.138-2.858c0.128-0.384,0.128-0.768,0.128-1.152V231.209z"/>
			<path fill="#ED5A17" d="M259.281,235.135c0,2.474,0.085,4.522,0.171,6.229h-4.565l-0.256-3.114h-0.128
				c-0.896,1.45-2.944,3.584-6.698,3.584s-7.21-2.262-7.21-9.045v-12.202h5.248v11.306c0,3.456,1.109,5.675,3.882,5.675
				c2.133,0,3.499-1.451,4.01-2.816c0.213-0.426,0.299-1.023,0.299-1.621v-12.543h5.248V235.135z"/>
			<path fill="#ED5A17" d="M268.45,220.586l2.474,3.925c0.683,1.109,1.28,2.134,1.877,3.2h0.085
				c0.598-1.152,1.195-2.219,1.835-3.285l2.304-3.84h5.717l-6.954,9.983l7.082,10.794h-5.973l-2.517-4.139
				c-0.683-1.109-1.28-2.218-1.877-3.37h-0.085c-0.597,1.194-1.237,2.219-1.877,3.37l-2.389,4.139h-5.802l7.21-10.581l-6.954-10.196
				H268.45z"/>
			<path fill="#ED5A17" d="M294.854,227.498c0-2.73-0.085-4.949-0.171-6.912h4.608l0.256,3.2h0.085
				c1.536-2.347,3.968-3.669,7.125-3.669c4.778,0,8.746,4.096,8.746,10.58c0,7.509-4.735,11.136-9.471,11.136
				c-2.603,0-4.778-1.109-5.845-2.773h-0.085v10.751h-5.248V227.498z M300.102,232.66c0,0.512,0.042,0.981,0.128,1.45
				c0.555,2.133,2.389,3.669,4.65,3.669c3.328,0,5.29-2.772,5.29-6.868c0-3.67-1.792-6.656-5.162-6.656
				c-2.176,0-4.181,1.579-4.736,3.883c-0.085,0.427-0.17,0.896-0.17,1.322V232.66z"/>
			<path fill="#ED5A17" d="M323.52,232.446c0.128,3.755,3.029,5.376,6.4,5.376c2.432,0,4.138-0.384,5.759-0.938l0.768,3.584
				c-1.792,0.768-4.267,1.322-7.253,1.322c-6.741,0-10.708-4.139-10.708-10.495c0-5.76,3.499-11.178,10.154-11.178
				c6.741,0,8.959,5.546,8.959,10.111c0,0.98-0.085,1.749-0.17,2.218H323.52z M332.65,228.777c0.042-1.92-0.811-5.077-4.309-5.077
				c-3.243,0-4.608,2.944-4.821,5.077H332.65z"/>
			<path fill="#ED5A17" d="M341.82,227.284c0-2.815-0.043-4.863-0.171-6.698h4.522l0.213,3.925h0.128
				c1.024-2.9,3.456-4.394,5.717-4.394c0.512,0,0.811,0.042,1.237,0.128v4.906c-0.469-0.086-0.938-0.128-1.579-0.128
				c-2.474,0-4.224,1.578-4.693,3.968c-0.085,0.469-0.128,1.023-0.128,1.578v10.794h-5.248V227.284z"/>
			<path fill="#ED5A17" d="M356.792,236.5c1.152,0.725,3.413,1.535,5.29,1.535c2.304,0,3.328-0.98,3.328-2.346
				c0-1.408-0.854-2.091-3.413-3.029c-4.053-1.365-5.717-3.584-5.717-6.059c0-3.669,3.029-6.484,7.85-6.484
				c2.304,0,4.309,0.555,5.546,1.237l-1.066,3.669c-0.854-0.513-2.56-1.195-4.395-1.195c-1.877,0-2.901,0.939-2.901,2.219
				c0,1.323,0.981,1.92,3.626,2.901c3.797,1.322,5.504,3.242,5.546,6.314c0,3.797-2.944,6.527-8.447,6.527
				c-2.517,0-4.778-0.598-6.314-1.451L356.792,236.5z"/>
			<path fill="#ED5A17" d="M394.547,230.782c0,7.638-5.376,11.051-10.666,11.051c-5.845,0-10.41-4.011-10.41-10.709
				c0-6.826,4.479-11.007,10.752-11.007C390.408,220.117,394.547,224.469,394.547,230.782z M378.889,230.996
				c0,4.011,2.005,7.039,5.162,7.039c2.986,0,5.078-2.9,5.078-7.124c0-3.243-1.451-6.997-5.035-6.997
				C380.382,223.914,378.889,227.54,378.889,230.996z"/>
			<path fill="#ED5A17" d="M398.853,226.772c0-2.39-0.085-4.395-0.171-6.187h4.564l0.257,3.114h0.128
				c0.938-1.621,3.199-3.583,6.655-3.583c3.626,0,7.381,2.346,7.381,8.916v12.33h-5.247v-11.732c0-2.986-1.109-5.248-3.969-5.248
				c-2.09,0-3.541,1.493-4.096,3.072c-0.17,0.427-0.256,1.066-0.256,1.664v12.244h-5.247V226.772z"/>
			<path fill="#ED5A17" d="M423.252,226.772c0-2.39-0.085-4.395-0.17-6.187h4.564l0.256,3.114h0.129
				c0.938-1.621,3.199-3.583,6.654-3.583c3.627,0,7.381,2.346,7.381,8.916v12.33h-5.247v-11.732c0-2.986-1.109-5.248-3.968-5.248
				c-2.09,0-3.541,1.493-4.096,3.072c-0.17,0.427-0.256,1.066-0.256,1.664v12.244h-5.248V226.772z"/>
			<path fill="#ED5A17" d="M451.363,232.446c0.129,3.755,3.029,5.376,6.4,5.376c2.432,0,4.138-0.384,5.76-0.938l0.768,3.584
				c-1.792,0.768-4.267,1.322-7.253,1.322c-6.741,0-10.708-4.139-10.708-10.495c0-5.76,3.498-11.178,10.153-11.178
				c6.741,0,8.96,5.546,8.96,10.111c0,0.98-0.086,1.749-0.171,2.218H451.363z M460.494,228.777c0.042-1.92-0.811-5.077-4.309-5.077
				c-3.243,0-4.608,2.944-4.822,5.077H460.494z"/>
			<path fill="#ED5A17" d="M469.45,236.5c1.152,0.725,3.413,1.535,5.29,1.535c2.304,0,3.328-0.98,3.328-2.346
				c0-1.408-0.854-2.091-3.413-3.029c-4.053-1.365-5.717-3.584-5.717-6.059c0-3.669,3.029-6.484,7.85-6.484
				c2.304,0,4.31,0.555,5.547,1.237l-1.067,3.669c-0.853-0.513-2.56-1.195-4.394-1.195c-1.878,0-2.901,0.939-2.901,2.219
				c0,1.323,0.981,1.92,3.626,2.901c3.797,1.322,5.504,3.242,5.547,6.314c0,3.797-2.944,6.527-8.447,6.527
				c-2.518,0-4.779-0.598-6.314-1.451L469.45,236.5z"/>
		</g>
	</g>
</g>
<g id="texte_4">
	<g>
		<g>
			<path fill="#EB5B16" d="M493.981,211.821h5.248v12.33h0.085c0.641-0.981,1.536-1.792,2.603-2.347
				c1.066-0.598,2.304-0.938,3.627-0.938c3.541,0,7.253,2.346,7.253,9.002v12.244h-5.248v-11.689c0-2.986-1.109-5.291-4.011-5.291
				c-2.048,0-3.498,1.365-4.096,2.944c-0.17,0.469-0.213,1.023-0.213,1.578v12.458h-5.248V211.821z"/>
			<path fill="#EB5B16" d="M534.509,237.121c0,1.877,0.086,3.711,0.342,4.991h-4.736l-0.384-2.304h-0.128
				c-1.237,1.621-3.413,2.773-6.144,2.773c-4.181,0-6.527-3.029-6.527-6.187c0-5.205,4.65-7.893,12.33-7.851v-0.341
				c0-1.365-0.555-3.627-4.224-3.627c-2.048,0-4.182,0.641-5.589,1.536l-1.024-3.413c1.536-0.938,4.224-1.834,7.509-1.834
				c6.655,0,8.575,4.224,8.575,8.788V237.121z M529.39,231.958c-3.712-0.042-7.253,0.726-7.253,3.883
				c0,2.048,1.322,2.986,2.986,2.986c2.133,0,3.626-1.365,4.139-2.858c0.128-0.384,0.128-0.768,0.128-1.152V231.958z"/>
			<path fill="#EB5B16" d="M540.052,227.521c0-2.39-0.085-4.395-0.17-6.187h4.564l0.256,3.114h0.128
				c0.938-1.621,3.2-3.583,6.656-3.583c3.626,0,7.381,2.346,7.381,8.916v12.33h-5.248V230.38c0-2.986-1.109-5.248-3.968-5.248
				c-2.091,0-3.541,1.493-4.096,3.072c-0.171,0.427-0.256,1.066-0.256,1.664v12.244h-5.248V227.521z"/>
			<path fill="#EB5B16" d="M583.607,211.821v24.446c0,2.133,0.085,4.437,0.171,5.845h-4.65l-0.256-3.285h-0.086
				c-1.237,2.304-3.754,3.755-6.74,3.755c-4.992,0-8.917-4.224-8.917-10.624c-0.043-6.954,4.31-11.092,9.301-11.092
				c2.858,0,4.906,1.151,5.845,2.688h0.086v-11.732H583.607z M578.36,229.996c0-0.427-0.043-0.981-0.129-1.408
				c-0.469-2.005-2.133-3.669-4.521-3.669c-3.371,0-5.248,2.986-5.248,6.826s1.877,6.613,5.205,6.613
				c2.133,0,4.01-1.451,4.522-3.712c0.128-0.47,0.171-0.981,0.171-1.536V229.996z"/>
			<path fill="#EB5B16" d="M594.824,215.533c0,1.535-1.151,2.815-2.986,2.815c-1.749,0-2.9-1.28-2.9-2.815
				c0-1.621,1.194-2.858,2.943-2.858C593.673,212.675,594.782,213.912,594.824,215.533z M589.235,242.112v-20.777h5.248v20.777
				H589.235z"/>
			<path fill="#EB5B16" d="M615.431,241.473c-1.109,0.512-3.285,1.066-5.888,1.066c-6.485,0-10.709-4.181-10.709-10.623
				c0-6.229,4.267-11.05,11.562-11.05c1.92,0,3.883,0.426,5.077,0.938l-0.938,3.968c-0.854-0.427-2.091-0.811-3.968-0.811
				c-4.011,0-6.399,2.943-6.356,6.74c0,4.267,2.772,6.698,6.356,6.698c1.792,0,3.114-0.384,4.139-0.811L615.431,241.473z"/>
			<path fill="#EB5B16" d="M635.436,237.121c0,1.877,0.086,3.711,0.342,4.991h-4.736l-0.384-2.304h-0.128
				c-1.237,1.621-3.413,2.773-6.144,2.773c-4.181,0-6.527-3.029-6.527-6.187c0-5.205,4.65-7.893,12.33-7.851v-0.341
				c0-1.365-0.555-3.627-4.224-3.627c-2.048,0-4.182,0.641-5.589,1.536l-1.024-3.413c1.536-0.938,4.224-1.834,7.509-1.834
				c6.655,0,8.575,4.224,8.575,8.788V237.121z M630.316,231.958c-3.712-0.042-7.253,0.726-7.253,3.883
				c0,2.048,1.322,2.986,2.986,2.986c2.133,0,3.626-1.365,4.139-2.858c0.128-0.384,0.128-0.768,0.128-1.152V231.958z"/>
			<path fill="#EB5B16" d="M640.979,228.247c0-2.73-0.085-4.949-0.17-6.912h4.607l0.256,3.2h0.085
				c1.536-2.347,3.968-3.669,7.125-3.669c4.778,0,8.746,4.096,8.746,10.58c0,7.509-4.735,11.136-9.471,11.136
				c-2.603,0-4.779-1.109-5.846-2.773h-0.085v10.751h-5.248V228.247z M646.227,233.409c0,0.512,0.043,0.981,0.128,1.45
				c0.555,2.134,2.389,3.669,4.65,3.669c3.328,0,5.29-2.772,5.29-6.868c0-3.67-1.792-6.656-5.162-6.656
				c-2.176,0-4.181,1.579-4.735,3.883c-0.086,0.427-0.171,0.896-0.171,1.322V233.409z"/>
			<path fill="#EB5B16" d="M669.646,233.195c0.128,3.755,3.029,5.376,6.399,5.376c2.433,0,4.139-0.384,5.76-0.938l0.769,3.584
				c-1.792,0.768-4.267,1.322-7.253,1.322c-6.741,0-10.709-4.139-10.709-10.495c0-5.76,3.498-11.178,10.154-11.178
				c6.74,0,8.959,5.546,8.959,10.111c0,0.98-0.085,1.749-0.171,2.218H669.646z M678.775,229.526c0.043-1.92-0.811-5.077-4.309-5.077
				c-3.242,0-4.607,2.944-4.821,5.077H678.775z M681.122,212.333l-5.205,6.314h-3.626l3.712-6.314H681.122z"/>
			<path fill="#EB5B16" d="M691.656,233.195c0.128,3.755,3.029,5.376,6.399,5.376c2.432,0,4.139-0.384,5.76-0.938l0.768,3.584
				c-1.791,0.768-4.266,1.322-7.252,1.322c-6.741,0-10.709-4.139-10.709-10.495c0-5.76,3.498-11.178,10.154-11.178
				c6.74,0,8.959,5.546,8.959,10.111c0,0.98-0.085,1.749-0.171,2.218H691.656z M700.786,229.526c0.043-1.92-0.811-5.077-4.309-5.077
				c-3.242,0-4.607,2.944-4.821,5.077H700.786z"/>
			<path fill="#EB5B16" d="M709.743,237.249c1.152,0.725,3.413,1.535,5.29,1.535c2.304,0,3.328-0.98,3.328-2.346
				c0-1.408-0.854-2.091-3.413-3.029c-4.053-1.365-5.717-3.584-5.717-6.059c0-3.669,3.029-6.484,7.85-6.484
				c2.304,0,4.31,0.555,5.547,1.237l-1.067,3.669c-0.853-0.513-2.56-1.195-4.394-1.195c-1.878,0-2.901,0.939-2.901,2.219
				c0,1.322,0.981,1.92,3.626,2.901c3.797,1.322,5.504,3.242,5.547,6.314c0,3.797-2.944,6.527-8.447,6.527
				c-2.518,0-4.779-0.598-6.314-1.45L709.743,237.249z"/>
		</g>
	</g>
</g>
<g id="Calque_5">
	<path fill="#FFFFFF" d="M539.148,73.672c0,0,21.522-2.909,21.522,38.392c0,0,0,34.708-23.85,38.392c0,0-13.767,1.552-22.88-11.828
		v-24.043C513.941,114.585,517.819,74.254,539.148,73.672z"/>
</g>
<g id="Calque_4">
	<path fill="#FFFFFF" d="M275.768,103.792c0,0,3.232-29.796,24.302-32.123c0,0,22.041-2.327,15.318,20.294
		c0,0-3.943,10.535-20.489,11.829c0,0-10.859,1.421-17.968,0.904l-1.164,0.113V103.792z"/>
</g>
<g id="Calque_3">
	<path fill="#FFFFFF" d="M158.135,114.262c0,0-2.457-40.848,24.948-42.141c0,0,23.526-1.81,21.329,34.126
		c0,0-1.422,41.286-25.336,42.554C179.076,148.801,159.815,151.878,158.135,114.262z"/>
</g>
<g id="fond">
	<path fill="#FFFFFF" stroke="#FFFFFF" d="M82.468,110.125c0,0,6.592-36.97-20.683-38.004c0,0-23.656,0.129-25.208,33.998
		c-1.551,33.867,11.375,42.271,19.391,42.658C63.983,149.164,77.298,145.415,82.468,110.125z"/>
</g>
</svg>
