<?xml version="1.0" encoding="utf-8"?>
<!-- Generator: Adobe Illustrator 14.0.0, SVG Export Plug-In . SVG Version: 6.00 Build 43363)  -->
<!DOCTYPE svg PUBLIC "-//W3C//DTD SVG 1.1//EN" "http://www.w3.org/Graphics/SVG/1.1/DTD/svg11.dtd">
<svg version="1.1" id="Calque_1" xmlns="http://www.w3.org/2000/svg" xmlns:xlink="http://www.w3.org/1999/xlink" x="0px" y="0px"
	 width="737.01px" height="510.24px" viewBox="0 0 737.01 510.24" enable-background="new 0 0 737.01 510.24" xml:space="preserve">
<g>
	<path fill="#FFFFFF" stroke="#FFFFFF" d="M71.959,126.226c0,0,6.592-36.97-20.683-38.004c0,0-23.656,0.129-25.207,33.998
		c-1.552,33.867,11.375,42.271,19.39,42.658S66.789,161.516,71.959,126.226z"/>
	<path fill="#552261" d="M0,128.165c0,0,0.301-52.353,42.658-55.456c0,0,39.803-4.523,39.642,58.429c0,0-7.497,50.026-42.916,50.414
		C39.384,181.552,2.801,185.043,0,128.165z"/>
	<rect x="72.659" y="75.166" fill="#552261" width="24.249" height="103.672"/>
	<path fill="none" d="M147.58,130.362c0,0-2.457-40.848,24.948-42.141c0,0,23.526-1.81,21.329,34.126
		c0,0-1.422,41.286-25.336,42.554C168.521,164.901,149.26,167.979,147.58,130.362z"/>
	<path fill="#552261" d="M121.727,131.396c0,0-3.749-55.599,46.148-58.759c0,0,33.351-3.16,34.515,55.269
		c0,0-2.585,51.402-40.978,53.688C161.412,181.594,125.475,182.845,121.727,131.396z"/>
	<path fill="#552261" d="M194.002,86.67V75.166h24.158l-0.776,104.576c0,0,1.681,51.835-51.577,51.448
		c0,0-17.709,0.646-39.297-9.694l4.653-16.936c0,0,13.056,8.92,29.731,9.05c0,0,32.188,4.008,32.705-34.772l0.403-17.581V86.67z"/>
	<path fill="#FFFFFF" d="M265.212,119.892c0,0,3.232-29.796,24.302-32.123c0,0,22.041-2.327,15.318,20.294
		c0,0-3.943,10.535-20.489,11.829c0,0-10.859,1.421-17.968,0.904l-1.164,0.113V119.892z"/>
	<path fill="#552261" d="M288.998,72.608c0,0,38.004-2.614,39.038,30.479c0,0-1.034,12.895-8.273,17.823
		c-7.239,4.928-18.226,12.684-38.133,13.072l-16.417,0.388c0,0,3.878,51.06,53.388,22.104l9.436,12.281
		c0,0-21.199,17.063-53.258,11.763c-32.058-5.3-35.419-42.328-34.902-53.934C240.393,114.979,245.694,79.875,288.998,72.608z"/>
	<path fill="#552261" d="M340.575,75.379v13.876l14.995-0.259v90.357l24.303-0.388l0.258-90.229h22.105l0.129-13.443h-22.363
		l0.129-18.356c0.129-23.139,21.846-14.219,21.846-14.219l5.172-12.797c-47.313-17.709-51.579,26.112-51.579,26.112v19.261
		L340.575,75.379z"/>
	<path fill="#E95D1C" d="M414.127,52.285c0,0-0.646-20.941,22.105-29.731c0,0,21.07-5.3,19.52,17.968
		c0,0-3.361,21.846-24.045,25.982C431.707,66.504,415.938,68.96,414.127,52.285z"/>
	<polygon fill="#552261" points="422.143,75.166 447.221,75.166 446.703,179.354 422.143,179.354 	"/>
	<path fill="#552261" d="M479.277,75.166h24.82v19.519c0,0,20.424-36.583,52.094-15.512c0,0,23.008,18.227,18.615,56.749
		c0,0-3.879,43.046-41.623,45.761c0,0-15.256,1.163-29.215-11.247v53.904h-24.691V75.166z"/>
	<path fill="#552261" d="M601.305,26.432h24.303v73.035c0,0,11.377-26.911,38.781-26.834c0,0,27.533-0.958,27.662,28.903v77.302
		h-23.914l-0.129-74.07c0,0-0.777-12.668-13.961-13.573c0,0-23.785-2.327-28.311,41.495l-0.258,46.149h-24.174V26.432z"/>
	<path fill="#FFFFFF" d="M528.529,89.772c0,0,21.521-2.909,21.521,38.392c0,0,0,34.708-23.848,38.392
		c0,0-13.768,1.552-22.881-11.828v-24.043C503.322,130.686,507.199,90.354,528.529,89.772z"/>
</g>
<path fill="#E95D1C" d="M93.33,353.477c0,0,12.119-33.933,24.237-47.505c0,0,7.174-2.521,4.266,4.459
	c0,0-28.116,63.211,8.144,118.473c0,0,21.329,40.138,87.837,60.303c0,0,5.042,5.818-4.266,6.012c0,0-68.447,2.908-110.135-57.007
	C103.413,438.211,80.533,405.248,93.33,353.477z"/>
<path fill="#552261" d="M6.85,252.455c0,0,1.939-6.787,6.399,0c0,0,24.432,86.285,100.247,109.941c0,0,38.974,14.93,93.072,2.714
	c0,0,8.338-0.084,2.909,4.805c0,0-57.201,39.793-124.29,6.636C85.186,376.551,15.77,348.436,6.85,252.455z"/>
<path fill="#E95D1C" d="M125.12,272.137c0,0-0.646-20.94,22.104-29.729c0,0,21.071-5.301,19.52,17.967
	c0,0-3.361,21.846-24.043,25.982C142.701,286.356,126.929,288.813,125.12,272.137z"/>
<g>
	<g>
		<path fill="#552261" d="M353.556,238.773h5.248v30.291h-5.248V238.773z"/>
		<path fill="#552261" d="M371.003,239.499c-1.152,3.925-3.03,8.276-4.608,10.922l-3.242,0.341
			c1.109-3.157,2.261-7.381,2.773-10.837L371.003,239.499z"/>
		<path fill="#552261" d="M374.841,260.147c0.129,3.755,3.029,5.376,6.4,5.376c2.432,0,4.138-0.384,5.759-0.938l0.769,3.584
			c-1.792,0.768-4.267,1.322-7.253,1.322c-6.741,0-10.709-4.139-10.709-10.495c0-5.76,3.499-11.178,10.154-11.178
			c6.741,0,8.959,5.546,8.959,10.111c0,0.98-0.085,1.749-0.17,2.218H374.841z M383.972,256.479c0.042-1.92-0.811-5.077-4.31-5.077
			c-3.242,0-4.607,2.944-4.821,5.077H383.972z"/>
		<path fill="#552261" d="M393.141,254.474c0-2.39-0.085-4.395-0.171-6.187h4.48l0.256,3.072h0.128
			c0.981-1.621,2.858-3.541,6.399-3.541c2.73,0,4.863,1.535,5.76,3.84h0.085c0.726-1.152,1.579-2.006,2.518-2.603
			c1.194-0.812,2.517-1.237,4.266-1.237c3.413,0,6.912,2.346,6.912,9.002v12.244h-5.12v-11.477c0-3.456-1.194-5.504-3.712-5.504
			c-1.791,0-3.114,1.28-3.669,2.773c-0.17,0.47-0.256,1.152-0.256,1.749v12.458h-5.119v-12.031c0-2.901-1.152-4.949-3.584-4.949
			c-1.963,0-3.285,1.536-3.797,2.944c-0.171,0.555-0.256,1.151-0.256,1.749v12.287h-5.12V254.474z"/>
		<path fill="#552261" d="M429.314,255.199c0-2.73-0.085-4.949-0.171-6.912h4.608l0.256,3.2h0.085
			c1.536-2.347,3.968-3.669,7.125-3.669c4.778,0,8.746,4.096,8.746,10.58c0,7.509-4.735,11.136-9.472,11.136
			c-2.603,0-4.778-1.109-5.845-2.773h-0.085v10.751h-5.248V255.199z M434.563,260.361c0,0.512,0.042,0.981,0.128,1.45
			c0.555,2.134,2.389,3.669,4.65,3.669c3.327,0,5.29-2.772,5.29-6.868c0-3.67-1.792-6.656-5.162-6.656
			c-2.176,0-4.182,1.579-4.736,3.883c-0.085,0.427-0.17,0.896-0.17,1.322V260.361z"/>
		<path fill="#552261" d="M454.27,238.773h5.247v30.291h-5.247V238.773z"/>
		<path fill="#552261" d="M484.985,258.484c0,7.637-5.376,11.05-10.666,11.05c-5.846,0-10.41-4.011-10.41-10.709
			c0-6.826,4.479-11.007,10.751-11.007C480.847,247.818,484.985,252.17,484.985,258.484z M469.327,258.697
			c0,4.011,2.006,7.039,5.163,7.039c2.986,0,5.076-2.9,5.076-7.124c0-3.243-1.45-6.997-5.034-6.997
			C470.82,251.615,469.327,255.241,469.327,258.697z"/>
		<path fill="#552261" d="M494.879,242.485c0,1.535-1.151,2.815-2.986,2.815c-1.749,0-2.9-1.28-2.9-2.815
			c0-1.621,1.194-2.858,2.943-2.858C493.728,239.627,494.837,240.864,494.879,242.485z M489.29,269.064v-20.777h5.248v20.777H489.29
			z"/>
	</g>
</g>
<g>
	<path fill="#552261" d="M251.242,258.457c0,7.637-5.375,11.05-10.666,11.05c-5.845,0-10.41-4.011-10.41-10.709
		c0-6.826,4.48-11.007,10.751-11.007C247.104,247.791,251.242,252.143,251.242,258.457z M235.584,258.67
		c0,4.011,2.005,7.039,5.162,7.039c2.986,0,5.077-2.9,5.077-7.124c0-3.243-1.451-6.997-5.034-6.997
		C237.078,251.588,235.584,255.214,235.584,258.67z"/>
	<path fill="#552261" d="M274.149,262.809c0,2.475,0.085,4.521,0.171,6.229h-4.565l-0.256-3.114h-0.128
		c-0.896,1.45-2.944,3.584-6.698,3.584s-7.21-2.262-7.21-9.045V248.26h5.248v11.306c0,3.456,1.109,5.675,3.882,5.675
		c2.133,0,3.499-1.451,4.011-2.816c0.213-0.426,0.298-1.023,0.298-1.621V248.26h5.248V262.809z"/>
	<path fill="#552261" d="M283.147,248.26l3.371,10.538c0.597,1.835,1.024,3.498,1.408,5.205h0.128
		c0.384-1.707,0.854-3.328,1.408-5.205l3.328-10.538h5.503l-7.936,20.777h-5.162l-7.722-20.777H283.147z"/>
	<path fill="#552261" d="M301.49,254.958c0-2.815-0.043-4.863-0.171-6.698h4.522l0.213,3.925h0.128
		c1.024-2.9,3.456-4.394,5.717-4.394c0.512,0,0.811,0.042,1.237,0.128v4.906c-0.469-0.086-0.938-0.128-1.579-0.128
		c-2.475,0-4.224,1.578-4.693,3.968c-0.085,0.469-0.128,1.023-0.128,1.578v10.794h-5.248V254.958z"/>
	<path fill="#552261" d="M322.264,242.458c0,1.535-1.152,2.815-2.986,2.815c-1.75,0-2.901-1.28-2.901-2.815
		c0-1.621,1.195-2.858,2.944-2.858C321.112,239.6,322.221,240.837,322.264,242.458z M316.675,269.037V248.26h5.248v20.777H316.675z"
		/>
	<path fill="#552261" d="M327.596,254.958c0-2.815-0.043-4.863-0.171-6.698h4.522l0.213,3.925h0.128
		c1.024-2.9,3.456-4.394,5.717-4.394c0.512,0,0.811,0.042,1.237,0.128v4.906c-0.469-0.086-0.938-0.128-1.579-0.128
		c-2.474,0-4.224,1.578-4.693,3.968c-0.085,0.469-0.128,1.023-0.128,1.578v10.794h-5.248V254.958z"/>
</g>
<g>
	<g>
		<path fill="#E95C1E" d="M246.582,306.473c0,1.877,0.085,3.711,0.341,4.991h-4.735l-0.384-2.304h-0.128
			c-1.237,1.621-3.413,2.773-6.144,2.773c-4.181,0-6.527-3.029-6.527-6.187c0-5.205,4.65-7.893,12.33-7.851v-0.341
			c0-1.365-0.555-3.627-4.224-3.627c-2.048,0-4.181,0.641-5.589,1.536l-1.024-3.413c1.536-0.938,4.224-1.834,7.509-1.834
			c6.656,0,8.576,4.224,8.576,8.788V306.473z M241.461,301.31c-3.711-0.042-7.252,0.726-7.252,3.883
			c0,2.048,1.322,2.986,2.986,2.986c2.133,0,3.626-1.365,4.138-2.858c0.128-0.384,0.128-0.768,0.128-1.152V301.31z"/>
		<path fill="#E95C1E" d="M270.726,305.235c0,2.474,0.085,4.522,0.171,6.229h-4.565l-0.256-3.114h-0.128
			c-0.896,1.45-2.944,3.584-6.698,3.584s-7.21-2.262-7.21-9.045v-12.202h5.248v11.306c0,3.456,1.109,5.675,3.882,5.675
			c2.133,0,3.499-1.451,4.01-2.816c0.213-0.426,0.299-1.023,0.299-1.621v-12.543h5.248V305.235z"/>
		<path fill="#E95C1E" d="M279.895,290.687l2.474,3.925c0.683,1.109,1.28,2.134,1.877,3.2h0.085
			c0.598-1.152,1.195-2.219,1.835-3.285l2.304-3.84h5.717l-6.954,9.983l7.082,10.794h-5.973l-2.517-4.139
			c-0.683-1.109-1.28-2.218-1.877-3.37h-0.085c-0.597,1.194-1.237,2.219-1.877,3.37l-2.389,4.139h-5.802l7.21-10.581l-6.954-10.196
			H279.895z"/>
		<path fill="#E95C1E" d="M306.298,297.599c0-2.73-0.085-4.949-0.171-6.912h4.608l0.256,3.2h0.085
			c1.536-2.347,3.968-3.669,7.125-3.669c4.778,0,8.746,4.096,8.746,10.58c0,7.509-4.735,11.136-9.471,11.136
			c-2.603,0-4.778-1.109-5.845-2.773h-0.085v10.751h-5.248V297.599z M311.546,302.761c0,0.512,0.042,0.981,0.128,1.45
			c0.555,2.133,2.389,3.669,4.65,3.669c3.328,0,5.29-2.772,5.29-6.868c0-3.67-1.792-6.656-5.162-6.656
			c-2.176,0-4.181,1.579-4.736,3.883c-0.085,0.427-0.17,0.896-0.17,1.322V302.761z"/>
		<path fill="#E95C1E" d="M334.964,302.547c0.128,3.755,3.029,5.376,6.4,5.376c2.432,0,4.138-0.384,5.759-0.938l0.768,3.584
			c-1.792,0.768-4.266,1.322-7.253,1.322c-6.741,0-10.708-4.139-10.708-10.495c0-5.76,3.499-11.178,10.154-11.178
			c6.741,0,8.959,5.546,8.959,10.111c0,0.98-0.085,1.749-0.17,2.218H334.964z M344.095,298.878c0.042-1.92-0.811-5.077-4.309-5.077
			c-3.243,0-4.608,2.944-4.821,5.077H344.095z"/>
		<path fill="#E95C1E" d="M353.264,297.385c0-2.815-0.043-4.863-0.171-6.698h4.522l0.213,3.925h0.128
			c1.024-2.9,3.456-4.394,5.717-4.394c0.512,0,0.811,0.042,1.237,0.128v4.906c-0.469-0.086-0.938-0.128-1.579-0.128
			c-2.475,0-4.224,1.578-4.693,3.968c-0.085,0.469-0.128,1.023-0.128,1.578v10.794h-5.248V297.385z"/>
		<path fill="#E95C1E" d="M368.237,306.601c1.152,0.725,3.414,1.535,5.291,1.535c2.304,0,3.328-0.98,3.328-2.346
			c0-1.408-0.854-2.091-3.413-3.029c-4.054-1.365-5.718-3.584-5.718-6.059c0-3.669,3.029-6.484,7.851-6.484
			c2.304,0,4.309,0.555,5.546,1.237l-1.066,3.669c-0.854-0.513-2.56-1.195-4.395-1.195c-1.877,0-2.9,0.939-2.9,2.219
			c0,1.323,0.98,1.92,3.626,2.901c3.797,1.322,5.504,3.242,5.546,6.314c0,3.797-2.943,6.527-8.447,6.527
			c-2.517,0-4.778-0.598-6.314-1.451L368.237,306.601z"/>
		<path fill="#E95C1E" d="M405.991,300.883c0,7.638-5.375,11.051-10.665,11.051c-5.846,0-10.41-4.011-10.41-10.709
			c0-6.826,4.479-11.007,10.751-11.007C401.854,290.218,405.991,294.569,405.991,300.883z M390.334,301.097
			c0,4.011,2.005,7.039,5.162,7.039c2.986,0,5.077-2.9,5.077-7.124c0-3.243-1.45-6.997-5.034-6.997
			C391.827,294.015,390.334,297.641,390.334,301.097z"/>
		<path fill="#E95C1E" d="M410.297,296.873c0-2.39-0.085-4.395-0.171-6.187h4.565l0.256,3.114h0.128
			c0.938-1.621,3.2-3.583,6.655-3.583c3.627,0,7.381,2.346,7.381,8.916v12.33h-5.247v-11.732c0-2.986-1.109-5.248-3.968-5.248
			c-2.091,0-3.541,1.493-4.096,3.072c-0.171,0.427-0.256,1.066-0.256,1.664v12.244h-5.248V296.873z"/>
		<path fill="#E95C1E" d="M434.697,296.873c0-2.39-0.086-4.395-0.171-6.187h4.564l0.257,3.114h0.128
			c0.938-1.621,3.199-3.583,6.655-3.583c3.626,0,7.381,2.346,7.381,8.916v12.33h-5.248v-11.732c0-2.986-1.109-5.248-3.968-5.248
			c-2.09,0-3.541,1.493-4.096,3.072c-0.17,0.427-0.256,1.066-0.256,1.664v12.244h-5.247V296.873z"/>
		<path fill="#E95C1E" d="M462.809,302.547c0.129,3.755,3.029,5.376,6.4,5.376c2.432,0,4.138-0.384,5.76-0.938l0.768,3.584
			c-1.792,0.768-4.267,1.322-7.253,1.322c-6.741,0-10.709-4.139-10.709-10.495c0-5.76,3.499-11.178,10.154-11.178
			c6.741,0,8.96,5.546,8.96,10.111c0,0.98-0.086,1.749-0.171,2.218H462.809z M471.939,298.878c0.042-1.92-0.811-5.077-4.31-5.077
			c-3.242,0-4.607,2.944-4.821,5.077H471.939z"/>
		<path fill="#E95C1E" d="M480.896,306.601c1.152,0.725,3.413,1.535,5.29,1.535c2.304,0,3.328-0.98,3.328-2.346
			c0-1.408-0.854-2.091-3.413-3.029c-4.053-1.365-5.717-3.584-5.717-6.059c0-3.669,3.029-6.484,7.85-6.484
			c2.304,0,4.31,0.555,5.547,1.237l-1.067,3.669c-0.853-0.513-2.56-1.195-4.394-1.195c-1.878,0-2.901,0.939-2.901,2.219
			c0,1.323,0.981,1.92,3.626,2.901c3.797,1.322,5.504,3.242,5.547,6.314c0,3.797-2.944,6.527-8.447,6.527
			c-2.518,0-4.779-0.598-6.314-1.451L480.896,306.601z"/>
	</g>
</g>
<g>
	<g>
		<path fill="#E95D1C" d="M505.427,281.922h5.248v12.33h0.085c0.641-0.981,1.536-1.792,2.603-2.347
			c1.066-0.598,2.304-0.938,3.627-0.938c3.541,0,7.253,2.346,7.253,9.002v12.244h-5.248v-11.689c0-2.986-1.109-5.291-4.011-5.291
			c-2.048,0-3.498,1.365-4.096,2.944c-0.17,0.469-0.213,1.023-0.213,1.578v12.458h-5.248V281.922z"/>
		<path fill="#E95D1C" d="M545.954,307.222c0,1.877,0.086,3.711,0.342,4.991h-4.736l-0.384-2.304h-0.128
			c-1.237,1.621-3.413,2.773-6.144,2.773c-4.181,0-6.527-3.029-6.527-6.187c0-5.205,4.65-7.893,12.33-7.851v-0.341
			c0-1.365-0.555-3.627-4.224-3.627c-2.048,0-4.182,0.641-5.589,1.536l-1.024-3.413c1.536-0.938,4.224-1.834,7.509-1.834
			c6.655,0,8.575,4.224,8.575,8.788V307.222z M540.835,302.059c-3.712-0.042-7.253,0.726-7.253,3.883
			c0,2.048,1.322,2.986,2.986,2.986c2.133,0,3.626-1.365,4.139-2.858c0.128-0.384,0.128-0.768,0.128-1.152V302.059z"/>
		<path fill="#E95D1C" d="M551.497,297.622c0-2.39-0.085-4.395-0.17-6.187h4.564l0.256,3.114h0.128
			c0.938-1.621,3.2-3.583,6.656-3.583c3.626,0,7.381,2.346,7.381,8.916v12.33h-5.248V300.48c0-2.986-1.109-5.248-3.968-5.248
			c-2.091,0-3.541,1.493-4.096,3.072c-0.171,0.427-0.256,1.066-0.256,1.664v12.244h-5.248V297.622z"/>
		<path fill="#E95D1C" d="M595.053,281.922v24.446c0,2.133,0.085,4.437,0.171,5.845h-4.65l-0.256-3.285h-0.086
			c-1.237,2.304-3.754,3.755-6.74,3.755c-4.992,0-8.917-4.224-8.917-10.624c-0.043-6.954,4.31-11.092,9.301-11.092
			c2.858,0,4.906,1.151,5.845,2.688h0.086v-11.732H595.053z M589.806,300.097c0-0.427-0.043-0.981-0.129-1.408
			c-0.469-2.005-2.133-3.669-4.521-3.669c-3.371,0-5.248,2.986-5.248,6.826s1.877,6.613,5.205,6.613c2.133,0,4.01-1.451,4.522-3.712
			c0.128-0.47,0.171-0.981,0.171-1.536V300.097z"/>
		<path fill="#E95D1C" d="M606.27,285.634c0,1.535-1.151,2.815-2.986,2.815c-1.749,0-2.9-1.28-2.9-2.815
			c0-1.621,1.194-2.858,2.943-2.858C605.118,282.775,606.228,284.013,606.27,285.634z M600.681,312.213v-20.777h5.248v20.777
			H600.681z"/>
		<path fill="#E95D1C" d="M626.876,311.573c-1.109,0.512-3.285,1.066-5.888,1.066c-6.485,0-10.709-4.181-10.709-10.623
			c0-6.229,4.267-11.05,11.562-11.05c1.92,0,3.883,0.426,5.077,0.938l-0.938,3.968c-0.854-0.427-2.091-0.811-3.968-0.811
			c-4.011,0-6.399,2.943-6.356,6.74c0,4.267,2.772,6.698,6.356,6.698c1.792,0,3.114-0.384,4.139-0.811L626.876,311.573z"/>
		<path fill="#E95D1C" d="M646.881,307.222c0,1.877,0.086,3.711,0.342,4.991h-4.736l-0.384-2.304h-0.128
			c-1.237,1.621-3.413,2.773-6.144,2.773c-4.181,0-6.527-3.029-6.527-6.187c0-5.205,4.65-7.893,12.33-7.851v-0.341
			c0-1.365-0.555-3.627-4.224-3.627c-2.048,0-4.182,0.641-5.589,1.536l-1.024-3.413c1.536-0.938,4.224-1.834,7.509-1.834
			c6.655,0,8.575,4.224,8.575,8.788V307.222z M641.762,302.059c-3.712-0.042-7.253,0.726-7.253,3.883
			c0,2.048,1.322,2.986,2.986,2.986c2.133,0,3.626-1.365,4.139-2.858c0.128-0.384,0.128-0.768,0.128-1.152V302.059z"/>
		<path fill="#E95D1C" d="M652.424,298.348c0-2.73-0.085-4.949-0.17-6.912h4.607l0.256,3.2h0.085
			c1.536-2.347,3.968-3.669,7.125-3.669c4.778,0,8.746,4.096,8.746,10.58c0,7.509-4.735,11.136-9.471,11.136
			c-2.603,0-4.779-1.109-5.846-2.773h-0.085v10.751h-5.248V298.348z M657.672,303.51c0,0.512,0.043,0.981,0.128,1.45
			c0.555,2.134,2.389,3.669,4.65,3.669c3.328,0,5.29-2.772,5.29-6.868c0-3.67-1.792-6.656-5.162-6.656
			c-2.176,0-4.181,1.579-4.735,3.883c-0.086,0.427-0.171,0.896-0.171,1.322V303.51z"/>
		<path fill="#E95D1C" d="M681.091,303.296c0.128,3.755,3.029,5.376,6.399,5.376c2.433,0,4.139-0.384,5.76-0.938l0.769,3.584
			c-1.792,0.768-4.267,1.322-7.253,1.322c-6.741,0-10.709-4.139-10.709-10.495c0-5.76,3.498-11.178,10.154-11.178
			c6.74,0,8.959,5.546,8.959,10.111c0,0.98-0.085,1.749-0.171,2.218H681.091z M690.221,299.627c0.043-1.92-0.811-5.077-4.309-5.077
			c-3.242,0-4.607,2.944-4.821,5.077H690.221z M692.567,282.434l-5.205,6.314h-3.626l3.712-6.314H692.567z"/>
		<path fill="#E95D1C" d="M703.102,303.296c0.128,3.755,3.029,5.376,6.399,5.376c2.432,0,4.139-0.384,5.76-0.938l0.768,3.584
			c-1.791,0.768-4.266,1.322-7.252,1.322c-6.741,0-10.709-4.139-10.709-10.495c0-5.76,3.498-11.178,10.154-11.178
			c6.74,0,8.959,5.546,8.959,10.111c0,0.98-0.085,1.749-0.171,2.218H703.102z M712.231,299.627c0.043-1.92-0.811-5.077-4.309-5.077
			c-3.242,0-4.607,2.944-4.821,5.077H712.231z"/>
		<path fill="#E95D1C" d="M721.188,307.35c1.152,0.725,3.413,1.535,5.29,1.535c2.304,0,3.328-0.98,3.328-2.346
			c0-1.408-0.854-2.091-3.413-3.029c-4.053-1.365-5.717-3.584-5.717-6.059c0-3.669,3.029-6.484,7.85-6.484
			c2.304,0,4.31,0.555,5.547,1.237l-1.067,3.669c-0.853-0.513-2.56-1.195-4.394-1.195c-1.878,0-2.901,0.939-2.901,2.219
			c0,1.322,0.981,1.92,3.626,2.901c3.797,1.322,5.504,3.242,5.547,6.314c0,3.797-2.944,6.527-8.447,6.527
			c-2.518,0-4.779-0.598-6.314-1.45L721.188,307.35z"/>
	</g>
</g>
<path fill="#FFFFFF" d="M528.594,89.772c0,0,21.521-2.909,21.521,38.392c0,0,0,34.708-23.85,38.392c0,0-13.766,1.552-22.879-11.828
	v-24.043C503.387,130.686,507.264,90.354,528.594,89.772z"/>
<path fill="#FFFFFF" d="M265.212,119.892c0,0,3.232-29.796,24.302-32.123c0,0,22.041-2.327,15.318,20.294
	c0,0-3.943,10.535-20.489,11.829c0,0-10.859,1.421-17.968,0.904l-1.164,0.113V119.892z"/>
<path fill="#FFFFFF" d="M147.58,130.362c0,0-2.457-40.848,24.948-42.141c0,0,23.526-1.81,21.329,34.126
	c0,0-1.422,41.286-25.336,42.554C168.521,164.901,149.26,167.979,147.58,130.362z"/>
<path fill="#FFFFFF" stroke="#FFFFFF" d="M71.913,126.226c0,0,6.592-36.97-20.683-38.004c0,0-23.656,0.129-25.208,33.998
	c-1.551,33.867,11.375,42.271,19.391,42.658C53.428,165.265,66.743,161.516,71.913,126.226z"/>
</svg>
