<?xml version="1.0" encoding="utf-8"?>
<!-- Generator: Adobe Illustrator 14.0.0, SVG Export Plug-In . SVG Version: 6.00 Build 43363)  -->
<!DOCTYPE svg PUBLIC "-//W3C//DTD SVG 1.1//EN" "http://www.w3.org/Graphics/SVG/1.1/DTD/svg11.dtd">
<svg version="1.1" xmlns="http://www.w3.org/2000/svg" xmlns:xlink="http://www.w3.org/1999/xlink" x="0px" y="0px"
	 width="1218.9px" height="297.64px" viewBox="0 0 1218.9 297.64" enable-background="new 0 0 1218.9 297.64" xml:space="preserve">
<g id="TEXTE_2">
	<g>
		<polygon fill="#1C4269" points="502.684,82.653 516.684,82.653 532.851,134.154 550.018,82.653 563.351,82.653 539.851,153.654 
			526.518,153.654 		"/>
		<polygon fill="#1C4269" points="589.184,82.653 602.851,82.653 626.684,152.82 612.351,152.82 607.934,138.82 583.684,138.987 
			578.851,152.82 565.684,152.82 		"/>
		<polygon fill="#FFFFFF" points="595.184,104.153 603.851,127.654 587.184,127.654 		"/>
		<polygon fill="#1C4269" points="634.851,82.653 647.517,82.653 647.517,140.654 679.517,140.654 679.517,152.82 634.851,152.82 		
			"/>
		<polygon fill="#1C4269" points="683.851,116.987 717.684,116.987 717.684,128.487 683.851,129.154 		"/>
		<path fill="#1C4269" d="M726.017,82.653h31.5c0,0,23.668,1.333,23.001,33.25c0,0,1.5,35.25-26.5,36.917h-28.001V82.653z"/>
		<path fill="#FFFFFF" d="M739.018,94.653h15.333c0,0,11.167,1.167,11.667,23.083c0,0,1.848,21.583-12.743,23.417h-14.257V94.653z"
			/>
		<polygon fill="#1C4269" points="788.684,152.82 788.684,82.653 836.017,82.653 836.017,94.653 802.85,94.653 802.684,108.986 
			833.017,108.986 833.017,120.653 802.85,120.653 802.85,141.154 836.017,141.154 836.017,152.82 		"/>
		<rect x="844.017" y="116.987" fill="#1C4269" width="33" height="12.167"/>
		<polygon fill="#1C4269" points="886.184,82.653 905.684,82.653 921.684,130.154 937.35,82.653 956.017,82.653 956.017,152.82 
			942.85,152.82 942.85,107.153 927.517,152.82 914.35,152.82 899.35,107.653 898.85,152.82 886.184,152.82 		"/>
		<polygon fill="#1C4269" points="964.184,152.82 987.351,82.653 1001.351,82.653 1025.517,152.82 1011.351,152.82 
			1006.351,138.654 982.184,138.654 977.351,152.82 		"/>
		<polygon fill="#FFFFFF" points="985.684,127.486 994.85,103.32 1003.184,127.486 		"/>
		<path fill="#1C4269" d="M1033.017,152.82V83.153l37.334-0.5c0,0,17.333,1.333,17.333,21.833c0,0-0.333,15.5-13.333,18.833
			l14.333,29.5h-15.167l-12.667-28l-14.166,0.167l0.333,27.833H1033.017z"/>
		<path fill="#FFFFFF" d="M1046.851,113.653V94.32h18.5c0,0,8.499,1,8.666,9.667c0,0-0.333,8.833-8.333,9.667H1046.851z"/>
		<polygon fill="#1C4269" points="1098.184,152.82 1098.184,82.653 1114.684,82.653 1138.851,126.32 1138.851,82.653 
			1151.851,82.653 1151.851,152.82 1138.851,152.82 1111.851,103.987 1111.351,152.82 		"/>
		<polygon fill="#1C4269" points="1165.684,152.82 1165.684,82.653 1212.9,82.653 1212.9,94.32 1178.851,94.32 1178.851,108.986 
			1208.684,108.986 1208.684,120.82 1178.851,120.82 1178.851,140.82 1212.9,140.82 1212.9,152.82 		"/>
	</g>
	<rect x="457.784" y="75.729" fill="#1C4269" width="15.333" height="77.091"/>
</g>
<g id="Calque_2">
	<path fill="#1C4269" d="M152.95,120.82l17-38c0,0-1.658-2.855-15.321-4.604c0,0-84.929-11.021-84.929,71.534
		c0,0-0.5,65.32,71.75,71.57c0,0,22,1.75,40-12.5l-28-32.25c0,0-38.48,11.75-41.497-29.577
		C111.953,146.993,112.2,111.82,152.95,120.82z"/>
	<path fill="#E7304E" d="M183.45,103.82l33.75-73.25c0,0,21.25,15,38.25,39.25L183.45,103.82z"/>
	<path fill="#E7304E" d="M196.45,120.82l37.75-17c0,0,14.75,25,9,64c0,0-3,24.75-25.5,50.75l-28.5-31.5c0,0,11.75-13,13.25-33.5
		C202.45,153.57,203.7,134.07,196.45,120.82z"/>
	<path fill="#1C4269" d="M178.45,63.82l17.75-39.25c0,0-26.25-11.93-62.5-11.93S12.95,43.07,5,143.82c0,0-5.3,106,100.7,136.75
		c0,0,62.5,19.25,119.25-24l-28.75-32.5c0,0-20.75,19.25-54.5,18.5c0,0-86.5,0.09-94-93.83c0,0,0.25-82.92,89.25-92.67
		C136.95,56.07,162.2,55.57,178.45,63.82z"/>
</g>
<g id="Calque_4">
</g>
<g id="texte_bleu">
	<path fill="#1C4269" d="M360.617,103.82l16.5-2.5c0,0-0.833-26-28.333-26.333c0,0-36.392-3.667-36,35.333
		c0,0-3.667,44.5,32.153,43.334c0,0,30.014,2.832,32.847-28.334l-16.333-1.333c0,0,0.333,16.333-15.5,16c0,0-18,2.833-17.833-24.667
		c0,0-2.333-27,16.971-26.667C345.087,88.653,360.117,86.82,360.617,103.82z"/>
	<path fill="#1C4269" d="M431.95,104.653l16.5-2.5c0,0-0.833-26-28.333-26.333c0,0-36.392-3.667-36,35.333
		c0,0-3.667,44.5,32.153,43.334c0,0,30.014,2.832,32.847-28.334l-16.333-1.333c0,0,0.333,16.333-15.5,16c0,0-18,2.833-17.833-24.667
		c0,0-2.333-27,16.971-26.667C416.421,89.487,431.45,87.653,431.95,104.653z"/>
</g>
<g id="POLICE">
	<g>
		<g>
			<path fill="#1C4269" d="M314.235,223.327v-37.223h12.061c4.57,0,7.549,0.187,8.938,0.559c2.133,0.559,3.918,1.773,5.357,3.644
				c1.438,1.87,2.158,4.287,2.158,7.249c0,2.285-0.415,4.206-1.244,5.764c-0.83,1.558-1.883,2.78-3.161,3.669
				c-1.278,0.889-2.577,1.477-3.897,1.765c-1.794,0.355-4.393,0.533-7.795,0.533h-4.9v14.041H314.235z M321.751,192.401v10.563
				h4.113c2.962,0,4.942-0.194,5.941-0.584c0.999-0.39,1.781-0.999,2.349-1.828c0.567-0.829,0.851-1.794,0.851-2.895
				c0-1.354-0.398-2.472-1.193-3.352c-0.796-0.88-1.803-1.431-3.021-1.65c-0.897-0.169-2.7-0.254-5.408-0.254H321.751z"/>
			<path fill="#1C4269" d="M378.626,223.327h-8.176l-3.25-8.455h-14.879l-3.072,8.455h-7.973l14.498-37.223h7.947L378.626,223.327z
				 M364.788,208.6l-5.129-13.813l-5.027,13.813H364.788z"/>
			<path fill="#1C4269" d="M382.638,223.327v-37.223h15.818c3.978,0,6.868,0.334,8.671,1.003s3.246,1.857,4.329,3.567
				c1.083,1.71,1.625,3.665,1.625,5.865c0,2.793-0.821,5.1-2.463,6.919c-1.642,1.819-4.097,2.967-7.363,3.44
				c1.625,0.948,2.966,1.989,4.024,3.123c1.058,1.134,2.484,3.148,4.278,6.043l4.545,7.262h-8.988l-5.434-8.1
				c-1.93-2.895-3.25-4.719-3.961-5.472s-1.464-1.27-2.26-1.549c-0.796-0.279-2.057-0.419-3.783-0.419h-1.523v15.539H382.638z
				 M390.153,201.846h5.561c3.605,0,5.856-0.152,6.754-0.457c0.897-0.305,1.6-0.829,2.107-1.574s0.762-1.676,0.762-2.793
				c0-1.253-0.334-2.264-1.003-3.034c-0.669-0.771-1.612-1.257-2.831-1.46c-0.609-0.085-2.438-0.127-5.484-0.127h-5.865V201.846z"/>
			<path fill="#1C4269" d="M419.937,223.327v-37.223h7.516v37.223H419.937z"/>
			<path fill="#1C4269" d="M432.708,211.215l7.313-0.711c0.44,2.454,1.333,4.257,2.679,5.408s3.161,1.727,5.446,1.727
				c2.42,0,4.244-0.512,5.472-1.536c1.227-1.024,1.841-2.222,1.841-3.593c0-0.88-0.258-1.629-0.774-2.247
				c-0.517-0.618-1.418-1.155-2.704-1.612c-0.88-0.305-2.886-0.847-6.018-1.625c-4.029-0.999-6.855-2.226-8.48-3.682
				c-2.285-2.048-3.428-4.545-3.428-7.49c0-1.896,0.537-3.669,1.612-5.319c1.075-1.65,2.624-2.907,4.646-3.771
				c2.022-0.863,4.464-1.295,7.325-1.295c4.672,0,8.188,1.024,10.55,3.072s3.601,4.782,3.72,8.201l-7.516,0.33
				c-0.322-1.913-1.012-3.288-2.069-4.126c-1.058-0.838-2.645-1.257-4.761-1.257c-2.184,0-3.894,0.448-5.129,1.346
				c-0.796,0.575-1.193,1.346-1.193,2.311c0,0.88,0.372,1.634,1.117,2.26c0.948,0.796,3.25,1.625,6.906,2.488
				s6.36,1.756,8.112,2.679s3.123,2.184,4.113,3.783s1.485,3.576,1.485,5.929c0,2.133-0.593,4.13-1.777,5.992
				c-1.185,1.862-2.861,3.246-5.027,4.151c-2.167,0.905-4.867,1.358-8.1,1.358c-4.706,0-8.32-1.088-10.842-3.263
				C434.705,218.549,433.199,215.379,432.708,211.215z"/>
		</g>
	</g>
</g>
<g id="POLICE_2">
	<g>
		<g>
			<path fill="#1C4269" d="M477.671,223.292v-37.223h7.516v37.223H477.671z"/>
			<path fill="#1C4269" d="M492.55,223.292v-36.918h7.516v30.646h18.688v6.271H492.55z"/>
			<path fill="#1C4269" d="M524.111,223.292v-37.223h27.6v6.297h-20.084v8.252h18.688v6.271h-18.688v10.131h20.795v6.271H524.111z"
				/>
		</g>
	</g>
</g>
<g id="POLICE_3">
	<g>
		<g>
			<path fill="#1C4269" d="M557.465,212.329v-7.135h13.38v7.135H557.465z"/>
			<path fill="#1C4269" d="M574.796,185.034h13.113c2.958,0,5.211,0.237,6.763,0.711c2.085,0.644,3.87,1.786,5.357,3.428
				s2.618,3.652,3.394,6.03c0.776,2.378,1.164,5.311,1.164,8.798c0,3.063-0.364,5.704-1.091,7.922
				c-0.889,2.708-2.157,4.9-3.806,6.576c-1.245,1.27-2.925,2.26-5.042,2.971c-1.584,0.524-3.701,0.787-6.351,0.787h-13.501V185.034z
				 M581.971,191.331v24.654h5.357c2.003,0,3.45-0.118,4.339-0.355c1.164-0.305,2.129-0.821,2.896-1.549
				c0.767-0.728,1.394-1.926,1.878-3.593s0.727-3.939,0.727-6.817s-0.242-5.087-0.727-6.627s-1.164-2.742-2.036-3.605
				s-1.979-1.447-3.321-1.752c-1.002-0.237-2.965-0.355-5.89-0.355H581.971z"/>
			<path fill="#1C4269" d="M610.67,222.256v-37.223h26.348v6.297h-19.173v8.252h17.84v6.271h-17.84v10.131h19.852v6.271H610.67z"/>
		</g>
	</g>
</g>
<g id="POLICE_43">
	<g>
		<g>
			<path fill="#1C4269" d="M646.934,213.217v-7.135h13.278v7.135H646.934z"/>
			<path fill="#1C4269" d="M664.204,223.145v-37.223h24.176v6.297h-17.055v8.811h14.722v6.297h-14.722v15.818H664.204z"/>
			<path fill="#1C4269" d="M694.274,223.145v-37.223h14.986c3.769,0,6.507,0.334,8.215,1.003s3.075,1.857,4.102,3.567
				c1.025,1.71,1.539,3.665,1.539,5.865c0,2.793-0.778,5.1-2.333,6.919c-1.556,1.819-3.881,2.967-6.977,3.44
				c1.54,0.948,2.811,1.989,3.813,3.123c1.002,1.134,2.353,3.148,4.053,6.043l4.306,7.262h-8.515l-5.148-8.1
				c-1.828-2.895-3.079-4.719-3.752-5.472c-0.674-0.753-1.388-1.27-2.142-1.549s-1.948-0.419-3.584-0.419h-1.443v15.539H694.274z
				 M701.395,201.665h5.269c3.415,0,5.548-0.152,6.398-0.457c0.85-0.305,1.516-0.829,1.996-1.574
				c0.481-0.745,0.722-1.676,0.722-2.793c0-1.253-0.316-2.264-0.95-3.034s-1.527-1.257-2.682-1.46
				c-0.577-0.085-2.31-0.127-5.196-0.127h-5.557V201.665z"/>
			<path fill="#1C4269" d="M761.628,223.145h-7.745l-3.079-8.455h-14.097l-2.91,8.455h-7.554l13.735-37.223h7.529L761.628,223.145z
				 M748.519,208.418l-4.859-13.813l-4.763,13.813H748.519z"/>
			<path fill="#1C4269" d="M765.477,223.145v-37.223h6.928l14.434,24.857v-24.857h6.615v37.223h-7.145l-14.217-24.273v24.273
				H765.477z"/>
			<path fill="#1C4269" d="M823.546,209.459l6.904,2.311c-1.059,4.063-2.818,7.08-5.28,9.052s-5.585,2.958-9.369,2.958
				c-4.683,0-8.532-1.688-11.547-5.065s-4.522-7.994-4.522-13.851c0-6.195,1.516-11.007,4.547-14.435s7.016-5.142,11.955-5.142
				c4.313,0,7.818,1.346,10.513,4.037c1.603,1.591,2.806,3.876,3.607,6.855l-7.048,1.777c-0.417-1.93-1.287-3.453-2.609-4.57
				c-1.323-1.117-2.932-1.676-4.823-1.676c-2.614,0-4.735,0.99-6.363,2.971c-1.627,1.98-2.441,5.188-2.441,9.623
				c0,4.706,0.802,8.058,2.405,10.055s3.688,2.996,6.255,2.996c1.892,0,3.52-0.635,4.883-1.904S822.953,212.185,823.546,209.459z"/>
			<path fill="#1C4269" d="M836.56,223.145v-37.223h26.148v6.297H843.68v8.252h17.705v6.271H843.68v10.131h19.701v6.271H836.56z"/>
		</g>
	</g>
</g>
</svg>
