<?xml version="1.0" encoding="utf-8"?>
<!-- Generator: Adobe Illustrator 14.0.0, SVG Export Plug-In . SVG Version: 6.00 Build 43363)  -->
<!DOCTYPE svg PUBLIC "-//W3C//DTD SVG 1.1//EN" "http://www.w3.org/Graphics/SVG/1.1/DTD/svg11.dtd">
<svg version="1.1" xmlns="http://www.w3.org/2000/svg" xmlns:xlink="http://www.w3.org/1999/xlink" x="0px" y="0px" width="850px"
	 height="486px" viewBox="0 0 850 486" enable-background="new 0 0 850 486" xml:space="preserve">
<g id="debut">
	<path fill="#0D3F96" d="M95.25,277.25c0,0,36.5,76.25,138,72c0,0,84-4,119.75-83.25h488.5v211.5H95.25V277.25z"/>
</g>
<g id="s_x27_">
	<path fill="#103F98" d="M76,176.333v-15.167c0,0-14-5.667-29.333-5.333c0,0-34.667,1.667-34.333,28.667c0,0-4,19.833,24.5,32.333
		c0,0,26.333,8.667,25.667,24.167c0,0,0.167,15.5-23.167,16.167c0,0-14.667,0.333-26.5-8l-6.5,12.5c0,0,7.833,8.667,31.167,8.5
		c0,0,39.667,3.667,42.167-30.5c0,0,1.167-20.833-17.833-28.833s-33.167-15-33.167-28c0,0,1.66-12.819,20.833-13
		C67.167,169.667,76,176.333,76,176.333z"/>
	<path fill="#0D3F96" d="M94.167,128.833c0,0-9.834-1.167-9.667-10.333c0,0,1.834-9,9.667-9.333c0,0,15.666,1.667,14.833,17.167
		c0,0,1.833,15.5-21.667,27.833c0,0-4.5,1-1.167-2.333s10.667-11.333,9.5-18.333C95.667,133.5,96.28,129.331,94.167,128.833z"/>
	<path fill="#0D3F96" d="M315.25,122.75c0,0-31-37-89.75-37S96.531,130.25,96.766,216.5c0,0-5.016,119.75,129.484,127.25
		c0,0,75.25,5,126.75-77.75v-78c0,0,15.25-15.75,33-17.5c0,0,18-1,19.5,18.5v77H423v-79.75c0,0-3.25-31.25-31.75-31.5
		c0,0-21,0.75-39.75,17L350,158l-13.75-0.25V266c0,0-23.879,54.711-95,60.25c0,0-57.5-1.25-91.25-57.875
		c0,0,52.25-12.375,101-42.375C251,226,321.25,173.25,315.25,122.75z"/>
	<g>
		<g>
			<polygon fill="#FFED00" points="175.75,145.25 191.5,94.75 208.5,145.25 262,145.25 218.875,177 235,227.75 191.5,196 
				148.75,227.75 165,177 122,145.25 			"/>
			<polygon fill="#FFED00" points="271.75,137.75 252.25,123.25 276.25,123.25 283.5,101 290.75,123.25 315.366,123.918 
				295.75,137.75 302.5,159.5 283.808,146.5 264.75,159.5 			"/>
			<polygon fill="#FFED00" points="122,233 129.75,209.5 137.5,233 160.75,233 141.375,246.75 148.75,268.75 129.75,255 111,268.75 
				117.75,246.75 99,232.25 			"/>
		</g>
	</g>
</g>
<g id="Calque_13">
	<path fill="#0D3F96" d="M604.667,200.667c0,0,3.666-29.5-22-30.167c0,0-13.334-2.833-30.5,9.5l-6.833-11.167
		c0,0,15.501-12.167,33.667-12.333s40.666,3.667,41.833,31.667v66.667c0,0-0.001,5.999,1.833,11.416l-12.5,1.25l-5-10.166
		c0,0-11.334,11.5-29.5,12.833s-37.166-13.166-37.333-32.833c0,0-2-33.167,39.5-35.5L604.667,200.667z"/>
</g>
<g id="Calque_14">
	<path fill="#FFFFFF" d="M604.501,215.833V244c0,0-10.001,12.168-27.334,12.334c0,0-22.166,0.667-22.333-20.25
		c0,0-1.167-18.25,23.5-20.25H604.501z"/>
</g>
<g id="Calque_10">
	<path fill="#FFFFFF" d="M569.578,365h39.002v11.468h-26.701v21.12h24.801v11.354h-24.801v32.588h-12.301V365z"/>
	<path fill="#FFFFFF" d="M612.777,403.512c0-7.811-0.1-13.49-0.4-18.578h10.602l0.5,10.887h0.299
		c2.4-8.047,8.102-12.188,13.402-12.188c1.199,0,1.9,0.118,2.9,0.354v13.61c-1.102-0.238-2.201-0.357-3.701-0.357
		c-5.801,0-9.9,4.379-11,11.007c-0.201,1.302-0.301,2.84-0.301,4.378v29.939h-12.301V403.512z"/>
	<path fill="#FFFFFF" d="M690.375,429.419c0,5.266,0.241,10.411,0.958,14h-13.281l-1.076-6.461h-0.36
		c-3.47,4.547-9.571,7.776-17.229,7.776c-11.727,0-18.308-8.494-18.308-17.349c0-14.599,13.042-22.138,34.579-22.017v-0.957
		c0-3.829-1.554-10.171-11.847-10.171c-5.74,0-11.727,1.794-15.673,4.308l-2.872-9.573c4.308-2.632,11.846-5.145,21.06-5.145
		c18.665,0,24.05,11.846,24.05,24.647V429.419z M676.018,414.941c-10.411-0.12-20.341,2.033-20.341,10.889
		c0,5.743,3.709,8.376,8.375,8.376c5.982,0,10.17-3.829,11.605-8.017c0.36-1.077,0.36-2.155,0.36-3.23V414.941z"/>
	<path fill="#FFFFFF" d="M694.31,403.191c0-6.233-0.217-11.463-0.433-16.137h11.572l0.648,8.124h0.322
		c2.381-4.229,8.113-9.348,16.871-9.348c9.192,0,18.709,6.12,18.709,23.259v32.16h-13.302v-30.604
		c0-7.789-2.812-13.688-10.058-13.688c-5.299,0-8.977,3.896-10.381,8.014c-0.433,1.113-0.648,2.782-0.648,4.339v31.939H694.31
		V403.191z"/>
	<path fill="#FFFFFF" d="M788.262,440.564c-3,1.385-8.884,2.885-15.924,2.885c-17.539,0-28.963-11.309-28.963-28.732
		c0-16.847,11.541-29.886,31.271-29.886c5.194,0,10.502,1.154,13.733,2.539l-2.54,10.73c-2.308-1.154-5.654-2.192-10.731-2.192
		c-10.847,0-17.308,7.962-17.192,18.231c0,11.54,7.5,18.117,17.192,18.117c4.848,0,8.424-1.039,11.193-2.193L788.262,440.564z"/>
	<path fill="#FFFFFF" d="M802.198,417.341c0.326,10.204,7.717,14.609,16.301,14.609c6.193,0,10.54-1.043,14.67-2.551l1.956,9.74
		c-4.564,2.088-10.866,3.595-18.475,3.595c-17.169,0-27.275-11.246-27.275-28.524c0-15.654,8.911-30.379,25.864-30.379
		c17.17,0,22.819,15.073,22.819,27.48c0,2.666-0.217,4.755-0.434,6.029H802.198z M825.454,407.369
		c0.108-5.219-2.065-13.798-10.977-13.798c-8.258,0-11.736,8-12.279,13.798H825.454z"/>
</g>
<g id="en_france">
	<path fill="#FFFFFF" d="M451.912,417.941c0.33,9.895,7.79,14.166,16.457,14.166c6.253,0,10.641-1.012,14.809-2.474l1.976,9.444
		c-4.607,2.023-10.972,3.485-18.65,3.485c-17.334,0-27.536-10.906-27.536-27.658c0-15.178,8.996-29.457,26.11-29.457
		c17.334,0,23.038,14.616,23.038,26.646c0,2.586-0.219,4.609-0.438,5.847H451.912z M475.391,408.271
		c0.109-5.059-2.085-13.379-11.081-13.379c-8.338,0-11.849,7.758-12.397,13.379H475.391z"/>
	<path fill="#FFFFFF" d="M492.514,402.518c0-6.385-0.199-11.743-0.398-16.532h10.669l0.599,8.323h0.299
		c2.194-4.333,7.479-9.577,15.557-9.577c8.476,0,17.25,6.271,17.25,23.829v32.949h-12.265v-31.354c0-7.98-2.593-14.023-9.273-14.023
		c-4.887,0-8.276,3.991-9.573,8.209c-0.398,1.141-0.598,2.85-0.598,4.446v32.722h-12.266V402.518z"/>
</g>
<g id="GG">
	<path fill="#FFFFFF" d="M449.375,265.25H526c0,0,13,7.625,13,23.25c0,0,1.625,33.5-52,34.125c0,0-51.125,3.25-54.5-31.625
		C432.5,291,431.125,276.25,449.375,265.25z"/>
	<path fill="#0E4097" d="M519.375,289.25c0,0,1.357,19.5-33.634,19.125c0,0-34.616,0.25-34.866-19.75c0,0-0.625-11.25,15.5-20.25
		c0,0,11.232,1.75,19.366,2.875s21.009,3.5,24.634,5.375S519.25,282.375,519.375,289.25z"/>
	<path fill="#FFFFFF" d="M648.375,266.25H725c0,0,13,7.625,13,23.25c0,0,1.625,33.5-52,34.125c0,0-51.125,3.25-54.5-31.625
		C631.5,292,630.125,277.25,648.375,266.25z"/>
</g>
<g id="G1">
	<path fill="#0E4097" d="M720.375,290c0,0,1.357,19.5-33.634,19.125c0,0-34.616,0.25-34.866-19.75c0,0-0.625-11.25,15.5-20.25
		c0,0,11.232,1.75,19.366,2.875s21.009,3.5,24.634,5.375S720.25,283.125,720.375,290z"/>
</g>
<g id="gag">
	<path fill="#0E4097" d="M529,166.625L533.5,152H524c0,0-11.875,0-21.375,9c0,0-9.75-4.875-20.375-4.625
		c0,0-40.375-0.098-41.5,39.826c0,0-1.375,20.674,18.25,32.424c0,0-14.75,12.75-12.5,22.25c0,0,0.375,7.5,6.625,11.375
		c0,0,1.125,2.25-3.75,3h75.875c0,0-12.125-6.25-34.625-8.875s-33.5-3.75-25.625-18l3.125-3.875c0,0,0.25-0.875,3,0
		c0,0,4.783,1.125,11.767,1.125s42.108-2.473,42.233-39.424c0,0,0.625-17.201-12.75-28.076c0,0,1-2.25,6-2.25
		S529,166.625,529,166.625z"/>
</g>
<g id="etoile">
</g>
<g id="Calque_7">
</g>
<g id="Calque_6">
	<path fill="#FFFFFF" d="M457.75,196.5c0,0-0.125-25.625,24.5-26c0,0,25.5,0,25.75,24.125c0,0,2,28-25.125,27.25
		C482.875,221.875,458.375,223.75,457.75,196.5z"/>
	<path fill="#0E4097" d="M729,166.625L733.5,152H724c0,0-11.875,0-21.375,9c0,0-9.75-4.875-20.375-4.625
		c0,0-40.375-0.098-41.5,39.826c0,0-1.375,20.674,18.25,32.424c0,0-14.75,12.75-12.5,22.25c0,0,0.375,7.5,6.625,11.375
		c0,0,1.125,2.25-3.75,3h75.875c0,0-12.125-6.25-34.625-8.875s-33.5-3.75-25.625-18l3.125-3.875c0,0,0.25-0.875,3,0
		c0,0,4.783,1.125,11.767,1.125s42.108-2.473,42.233-39.424c0,0,0.625-17.201-12.75-28.076c0,0,1-2.25,6-2.25
		S729,166.625,729,166.625z"/>
</g>
<g id="Calque_8">
	<path fill="#FFFFFF" d="M656.75,196.5c0,0-0.125-25.625,24.5-26c0,0,25.5,0,25.75,24.125c0,0,2,28-25.125,27.25
		C681.875,221.875,657.375,223.75,656.75,196.5z"/>
</g>
<g id="e">
	<path fill="#0E4097" d="M832.084,215.931c0,0,2.678-60.099-43.86-60.099c0,0-42.018,0.321-44.194,55.244
		c0,0-1.004,62.275,56.918,59.596c0,0,12.221-1.171,27.622-10.881l-4.353-11.384c0,0-11.216,8.37-27.622,8.035
		s-33.983-11.551-34.318-40.177L832.084,215.931z"/>
</g>
<g id="l_x27_Europe">
	<path fill="#0D3F96" d="M502.792,22.42c0,0-4.891-1.142-4.973-5.218s6.849-5.707,9.376-2.69s3.751,8.561,0,13.289
		s-7.664,7.011-7.664,7.011s-2.772,0-0.815-1.549s4.729-5.137,4.402-7.99S502.792,22.42,502.792,22.42z"/>
	<path fill="#0D3F96" d="M475.97,22.501h8.805v74.272c0,0-0.08,5.625,7.176,3.75c0,0,2.2,4.947-0.734,6.102
		s-13.616,4.171-15.246-7.324V22.501z"/>
	<polygon fill="#0D3F96" points="522.771,28.29 561.985,28.29 558.316,37.176 532.391,37.176 532.391,62.694 558.888,62.694 
		558.888,70.847 532.553,70.847 532.553,98.567 562.8,98.567 562.8,107.127 522.771,107.127 	"/>
	<path fill="#0D3F96" d="M575.926,50.385h9.213v41.416c0,0,0.245,8.723,10.681,8.56s13.614-5.381,14.756-7.256v-42.72h8.805v53.482
		l1.305,2.772L614,107.127l-2.12-6.195c0,0-7.827,7.175-17.284,6.93s-18.67-5.544-18.67-14.675S575.926,50.385,575.926,50.385z"/>
	<path fill="#0D3F96" d="M635.849,50.385h8.234v6.848c0,0,9.946-10.843,22.094-6.277l-3.913,8.316c0,0-9.132-3.424-17.447,5.218
		l-0.081,42.476h-8.887V50.385z"/>
	<path fill="#0D3F96" d="M693.897,49.406c0,0,26.414-0.975,26.414,30.002c0,0-0.732,29.103-26.414,29.184
		c0,0-24.865,0.025-25.11-30.193C668.787,78.399,669.113,49.165,693.897,49.406z"/>
	<path fill="#0D3F96" d="M731.895,53.888c0,0,9.619-4.649,19.077-4.485c0,0,27.395-0.978,27.476,29.595
		c0,0-0.408,35.546-37.34,26.986l-0.083,28.698h-9.13V53.888z"/>
	<path fill="#0D3F96" d="M787.819,77.938c0,0,1.143-29.269,22.828-29.105c0,0,22.582-1.386,22.664,31.714h-35.79
		c0,0-1.143,19.974,17.772,19.893c0,0,8.153,0.815,13.778-4.076l2.771,5.789c0,0-6.441,5.788-18.018,5.87
		C813.826,108.021,788.146,108.592,787.819,77.938z"/>
</g>
<g id="L_x27_Europe_inter">
	<path fill="#FFFFFF" d="M797.522,72.557c0,0-0.163-15.409,13.696-15.572c0,0,12.474-0.082,12.474,15.572H797.522z"/>
	<path fill="#FFFFFF" d="M741.429,97.994V58.453c0,0,27.964-8.397,28.29,20.545c0,0,0.325,21.605-19.159,21.442
		C750.56,100.44,744.037,101.092,741.429,97.994z"/>
	<path fill="#FFFFFF" d="M677.755,81.118c0,0-1.424-24.418,16.794-24.214c0,0,16.958-1.605,16.714,21.495
		c0,0,0.896,22.122-16.714,22.041C694.549,100.44,678.896,101.256,677.755,81.118z"/>
</g>
<g id="centre_de_e">
	<path fill="#FFFFFF" stroke="#FFFFFF" d="M762.611,202.037c0,0-1.313-30.596,25.459-31.537c0,0,24.428-2.446,25.935,31.537H762.611
		z"/>
</g>
</svg>
