<?xml version="1.0" encoding="utf-8"?>
<!-- Generator: Adobe Illustrator 14.0.0, SVG Export Plug-In . SVG Version: 6.00 Build 43363)  -->
<!DOCTYPE svg PUBLIC "-//W3C//DTD SVG 1.1//EN" "http://www.w3.org/Graphics/SVG/1.1/DTD/svg11.dtd">
<svg version="1.1" xmlns="http://www.w3.org/2000/svg" xmlns:xlink="http://www.w3.org/1999/xlink" x="0px" y="0px"
	 width="525.333px" height="185px" viewBox="0 0 525.333 185" enable-background="new 0 0 525.333 185" xml:space="preserve">
<g id="Base" display="none">
	
		<image display="inline" overflow="visible" width="700" height="295" xlink:href="logo_apf34_petit.png"  transform="matrix(0.8929 0 0 0.8929 -112.3335 -0.9165)">
	</image>
</g>
<g id="Calque_5">
	<path fill="#EC7404" d="M104.847,142.247c-10.12,29.782-41.721,44.863-64.589,41.372c-27.606-4.215-47.133-29.327-34.683-64.757
		c10.428-29.676,40.759-46.236,67.892-39.626C100.6,85.848,114.764,113.065,104.847,142.247z"/>
	<path fill="#FDC400" d="M140.67,168.312c-3.315,10.529-16.146,14.93-24.561,12.28c-8.414-2.648-11.508-11.309-8.193-21.838
		c3.315-10.529,15.535-14.698,23.949-12.049C140.279,149.354,143.985,157.782,140.67,168.312z"/>
	<path fill="#FDC400" d="M116.758,39.143c-1.171,6.664-9.122,12.214-14.783,12.214s-9.929-4.341-9.929-11.106
		s8.263-14.465,13.924-14.465S118.457,29.481,116.758,39.143z"/>
</g>
<g id="Calque_6" display="none">
</g>
<g id="Calque_4">
	<path fill="#FDC400" d="M22.542,93.231c0,0,15.25-15.856,41.25-15.481c0,0,39,0.042,44.223,39.125
		C108.015,116.875,98.167,84.481,22.542,93.231z"/>
</g>
<g id="inter">
	<path fill="#FFFFFF" d="M20.292,139.25c0,0-1.875-39.75,41.125-43.75c0,0,19.625-1.25,29.125,19.5c0,0,11.625,35.5-29.75,49.75
		c0,0-19.5,6.5-31.625-7C29.167,157.75,21.542,150.875,20.292,139.25z"/>
</g>
<g id="texte" display="none">
</g>
<g id="Calque_7">
	<path fill="#E53517" d="M35.894,37.453c0,0-2.013-20.328,28.481-36.936c0,0,3.522-0.303,0.805,2.414s-12.178,11.875-11.876,25.06
		c0,0,0.203,9.458,9.461,16.503s24.556,16.706,52.937,17.411c0,0,23.852,1.007,47.201-9.561c0,0,4.529-3.12,4.026,0.201
		c0,0-0.906,1.611-3.12,3.221s-23.952,16.807-61.189,16.404s-0.403,0.008-0.403,0.008S39.617,72.883,35.894,37.453z"/>
</g>
<g id="APF" display="none">
	<path display="inline" fill="#4260AD" d="M127.333,131.904l17.613-29.866c0,0,0.766-1.685,4.901-1.685s7.811-0.919,10.568,2.604
		l16.388,28.947h-11.027l-2.604-5.36l-22.055-0.153l-2.91,5.514H127.333z"/>
	<path display="inline" fill="#4260AD" d="M181.705,100.246h31.704c0,0,7.352,0.414,7.352,12.36c0,0,1.685,11.181-7.964,11.181
		s-21.595,0-21.595,0l0.306,8.117h-9.802V100.246z"/>
	<path display="inline" fill="#4260AD" d="M227.805,131.904v-22.667c0,0,0.766-8.945,9.649-8.991s27.875,0,27.875,0v7.766
		l-24.352-0.613c0,0-3.523,0.306-3.523,3.829s0,3.523,0,3.523v1.314h25.271v6.038H237.76l-0.307,9.802H227.805z"/>
</g>
<g id="inter_APF" display="none">
	<polygon display="inline" fill="#FFFFFF" points="145.1,119.805 152.068,107.705 159.649,119.805 	"/>
	<path display="inline" fill="#FFFFFF" d="M191.047,107.705h17.46c0,0,2.144,0.919,2.144,4.748s-0.766,4.135-2.604,4.288s-17,0-17,0
		V107.705z"/>
</g>
<g id="Calque_10">
	<g>
		<path fill="#4260AD" d="M174.924,119.853c-3.545,0-6.229,0.601-8.053,1.802c-1.824,1.201-2.86,3.047-3.109,5.537l27.4,0.044v5.493
			h-27.444c0,2.783,0.872,4.761,2.615,5.933c1.714,1.201,4.578,1.802,8.591,1.802h16.238V146h-16.721
			c-1.963,0-3.618-0.044-4.966-0.132c-1.348-0.103-2.593-0.271-3.735-0.505c-2.036-0.396-4.014-1.113-5.933-2.154
			c-2.373-1.259-4.179-2.94-5.416-5.042c-1.238-2.103-1.857-4.581-1.857-7.438c0-5.537,1.805-9.656,5.417-12.359
			c3.61-2.702,9.195-4.054,16.754-4.054h16.458v5.537H174.924z"/>
		<path fill="#4260AD" d="M198.809,122.775h17.161c5.186,0,8.888,0.659,11.107,1.978c2.219,1.318,3.328,3.494,3.328,6.526V146
			h-9.096v-14.019c0-1.699-0.403-2.819-1.208-3.362c-0.835-0.512-2.439-0.769-4.812-0.769h-7.339V146h-9.141V122.775z"/>
		<path fill="#4260AD" d="M234.733,122.775h6.416v-8.459h9.098v8.459h9.602v4.592h-9.602v9.404c0,1.743,0.439,2.944,1.318,3.604
			c0.834,0.659,2.365,0.988,4.592,0.988h3.691V146h-8.283c-3.37,0-5.934-0.615-7.691-1.846c-1.816-1.23-2.725-3.047-2.725-5.449
			v-11.338h-6.416V122.775z"/>
		<path fill="#4260AD" d="M265.232,122.775h15.358c3.633,0,6.123,0.432,7.471,1.296c1.494,0.879,2.242,2.395,2.242,4.548v3.867
			h-8.746v-3.01c0-0.864-0.234-1.465-0.703-1.802c-0.482-0.293-1.56-0.439-3.229-0.439h-3.252V146h-9.141V122.775z"/>
		<path fill="#4260AD" d="M311.418,146c-5.699,0-10.006-0.974-12.92-2.922c-2.96-1.948-4.439-4.849-4.439-8.701
			c0-3.779,1.494-6.658,4.482-8.636c2.945-1.978,7.236-2.966,12.877-2.966h13.314v4.812h-12.019c-3.296,0-5.53,0.315-6.702,0.944
			c-1.201,0.66-1.801,1.803-1.801,3.428h20.521v4.856h-20.521c0,1.626,0.541,2.754,1.625,3.384c1.084,0.659,3.348,0.988,6.79,0.988
			h12.106V146H311.418z"/>
		<path fill="#4260AD" d="M330.623,122.775h17.556c5.288,0,9.412,1.033,12.371,3.098c2.944,2.109,4.416,5.054,4.416,8.833
			c0,1.494-0.285,2.9-0.856,4.219c-0.352,0.688-0.74,1.289-1.165,1.802s-0.981,1.069-1.67,1.67c-1.436,1.26-3.204,2.176-5.306,2.746
			c-2.103,0.572-4.904,0.857-8.405,0.857h-7.844v8.416h-9.097V122.775z M339.719,127.763v13.294h5.537
			c3.691,0,6.32-0.527,7.889-1.582c1.552-1.025,2.328-2.783,2.328-5.273c0-2.373-0.703-4.036-2.109-4.988
			c-1.406-0.967-3.853-1.45-7.338-1.45H339.719z"/>
		<path fill="#4260AD" d="M370.503,122.775h15.358c3.633,0,6.123,0.432,7.471,1.296c1.494,0.879,2.242,2.395,2.242,4.548v3.867
			h-8.746v-3.01c0-0.864-0.234-1.465-0.703-1.802c-0.482-0.293-1.56-0.439-3.229-0.439h-3.252V146h-9.141V122.775z"/>
		<path fill="#4260AD" d="M410.889,120.138h-9.603v-5.823h9.603V120.138z M410.889,146h-9.603v-23.225h9.603V146z"/>
		<path fill="#4260AD" d="M418.161,141.188h19.271c1.685,0,2.915-0.197,3.691-0.593c0.776-0.337,1.165-0.908,1.165-1.714
			c0-0.776-0.389-1.348-1.165-1.714c-0.806-0.352-2.036-0.527-3.691-0.527h-7.933c-4.585,0-7.705-0.498-9.359-1.494
			c-1.686-0.952-2.527-2.644-2.527-5.075c0-2.549,0.996-4.41,2.988-5.582c1.992-1.143,5.054-1.714,9.185-1.714h19.577v4.812H433.3
			c-2.578,0-4.256,0.153-5.032,0.462c-0.82,0.293-1.23,0.842-1.23,1.647c0,0.762,0.345,1.308,1.033,1.637
			c0.688,0.33,1.779,0.495,3.273,0.495h8.24c3.75,0,6.628,0.586,8.635,1.758c1.992,1.157,2.988,2.863,2.988,5.119
			c0,2.153-0.871,3.911-2.614,5.273c-1.772,1.348-4.051,2.021-6.833,2.021h-23.6V141.188z"/>
		<path fill="#4260AD" d="M473.006,146c-5.699,0-10.006-0.974-12.92-2.922c-2.96-1.948-4.439-4.849-4.439-8.701
			c0-3.779,1.494-6.658,4.482-8.636c2.945-1.978,7.236-2.966,12.877-2.966h13.314v4.812h-12.019c-3.296,0-5.53,0.315-6.702,0.944
			c-1.201,0.66-1.801,1.803-1.801,3.428h20.521v4.856h-20.521c0,1.626,0.541,2.754,1.625,3.384c1.084,0.659,3.348,0.988,6.79,0.988
			h12.106V146H473.006z"/>
		<path fill="#4260AD" d="M491.573,141.188h19.27c1.685,0,2.915-0.197,3.691-0.593c0.776-0.337,1.164-0.908,1.164-1.714
			c0-0.776-0.388-1.348-1.164-1.714c-0.806-0.352-2.036-0.527-3.691-0.527h-7.932c-4.586,0-7.706-0.498-9.361-1.494
			c-1.685-0.952-2.526-2.644-2.526-5.075c0-2.549,0.996-4.41,2.988-5.582c1.992-1.143,5.054-1.714,9.185-1.714h19.578v4.812h-16.063
			c-2.578,0-4.256,0.153-5.031,0.462c-0.821,0.293-1.23,0.842-1.23,1.647c0,0.762,0.344,1.308,1.032,1.637
			c0.688,0.33,1.78,0.495,3.274,0.495h8.239c3.75,0,6.628,0.586,8.636,1.758c1.991,1.157,2.988,2.863,2.988,5.119
			c0,2.153-0.872,3.911-2.615,5.273c-1.772,1.348-4.051,2.021-6.834,2.021h-23.598V141.188z"/>
	</g>
</g>
<g id="Calque_13" display="none">
</g>
<g id="Calque_12">
	<g>
		<path fill="#E53517" d="M355.375,153.315h21.468c3.604,0,6.519,0.132,8.745,0.396c2.212,0.308,3.889,0.718,5.031,1.23
			c2.154,0.894,3.779,2.072,4.879,3.537c1.068,1.48,1.604,3.209,1.604,5.186c0,1.92-0.418,3.538-1.252,4.856
			c-0.484,0.659-1.055,1.274-1.715,1.846c-0.688,0.571-1.494,1.084-2.416,1.538c-1.598,0.747-3.369,1.268-5.318,1.561
			c-0.893,0.131-2.152,0.241-3.779,0.329c-1.625,0.088-3.412,0.132-5.361,0.132h-12.019V185h-9.866V153.315z M376.71,159.006h-11.47
			v9.295h12.106c3.063,0,5.303-0.389,6.725-1.164c1.391-0.762,2.087-1.92,2.087-3.473c0-1.684-0.703-2.885-2.109-3.604
			C382.614,159.357,380.167,159.006,376.71,159.006z"/>
		<path fill="#E53517" d="M403.802,161.775h18.633c4.717,0,8.266,0.721,10.646,2.164c2.38,1.443,3.57,3.614,3.57,6.515V185h-24.478
			c-3.384,0-6.006-0.586-7.866-1.758c-1.86-1.143-2.791-2.791-2.791-4.943c0-2.652,1.063-4.541,3.187-5.67
			c2.109-1.143,5.632-1.713,10.569-1.713h12.019v-0.594c0-1.348-0.615-2.322-1.846-2.922c-1.26-0.572-3.421-0.857-6.481-0.857
			h-15.162V161.775z M415.866,180.32h11.426v-4.769h-10.745c-2.109,0-3.566,0.176-4.372,0.527c-0.806,0.425-1.208,1.099-1.208,2.021
			c0,0.82,0.3,1.396,0.9,1.725C412.467,180.155,413.8,180.32,415.866,180.32z"/>
		<path fill="#E53517" d="M444.628,161.775h15.358c3.633,0,6.123,0.432,7.471,1.296c1.494,0.879,2.241,2.396,2.241,4.548v3.867
			h-8.745v-3.01c0-0.864-0.234-1.465-0.703-1.802c-0.483-0.293-1.56-0.439-3.229-0.439h-3.252V185h-9.141V161.775z"/>
		<path fill="#E53517" d="M485.013,159.139h-9.602v-5.823h9.602V159.139z M485.013,185h-9.602v-23.225h9.602V185z"/>
		<path fill="#E53517" d="M492.287,180.188h19.27c1.686,0,2.916-0.197,3.691-0.593c0.776-0.337,1.165-0.908,1.165-1.714
			c0-0.776-0.389-1.348-1.165-1.714c-0.805-0.352-2.035-0.527-3.691-0.527h-7.932c-4.585,0-7.705-0.498-9.36-1.494
			c-1.685-0.952-2.526-2.644-2.526-5.075c0-2.549,0.996-4.41,2.988-5.582c1.992-1.143,5.053-1.713,9.184-1.713h19.578v4.812h-16.063
			c-2.578,0-4.255,0.153-5.031,0.462c-0.82,0.293-1.23,0.842-1.23,1.647c0,0.762,0.344,1.308,1.033,1.637
			c0.688,0.33,1.779,0.495,3.273,0.495h8.24c3.749,0,6.628,0.586,8.635,1.758c1.992,1.156,2.988,2.863,2.988,5.119
			c0,2.153-0.872,3.911-2.615,5.273c-1.772,1.348-4.05,2.021-6.833,2.021h-23.599V180.188z"/>
	</g>
</g>
<g id="Calque_11">
	<g>
		<path fill="#4260AD" d="M147.992,77.315h10.524L178.534,109h-10.965l-4.328-7.515h-20.479L138.587,109h-10.503L147.992,77.315z
			 M152.848,83.666l-6.855,12.151h14.018L152.848,83.666z"/>
		<path fill="#4260AD" d="M181.874,77.315h21.468c3.604,0,6.519,0.132,8.745,0.396c2.212,0.308,3.889,0.718,5.031,1.23
			c2.154,0.894,3.779,2.073,4.879,3.538c1.068,1.479,1.604,3.208,1.604,5.186c0,1.919-0.418,3.538-1.252,4.856
			c-0.484,0.659-1.055,1.274-1.715,1.846c-0.688,0.571-1.494,1.084-2.416,1.538c-1.598,0.747-3.37,1.267-5.318,1.56
			c-0.894,0.132-2.152,0.242-3.779,0.33c-1.625,0.088-3.413,0.132-5.361,0.132H191.74V109h-9.866V77.315z M203.209,83.006h-11.47
			v9.294h12.106c3.062,0,5.303-0.388,6.725-1.165c1.391-0.762,2.087-1.919,2.087-3.472c0-1.685-0.703-2.886-2.109-3.604
			C209.113,83.358,206.667,83.006,203.209,83.006z"/>
		<path fill="#4260AD" d="M230.17,94.454c0-4.16,0.358-7.126,1.076-8.899c0.659-1.89,1.89-3.435,3.691-4.636
			c0.908-0.571,1.978-1.099,3.208-1.582c1.201-0.454,2.52-0.828,3.955-1.121c3.062-0.601,6.782-0.901,11.162-0.901h15.029v5.537
			H252.45c-4.233,0-7.354,0.615-9.359,1.846c-2.037,1.23-3.055,3.186-3.055,5.867h28.257v5.471h-28.257V109h-9.865V94.454z"/>
	</g>
</g>
</svg>
