<?xml version="1.0" encoding="utf-8"?>
<!-- Generator: Adobe Illustrator 14.0.0, SVG Export Plug-In . SVG Version: 6.00 Build 43363)  -->
<!DOCTYPE svg PUBLIC "-//W3C//DTD SVG 1.1//EN" "http://www.w3.org/Graphics/SVG/1.1/DTD/svg11.dtd">
<svg version="1.1" xmlns="http://www.w3.org/2000/svg" xmlns:xlink="http://www.w3.org/1999/xlink" x="0px" y="0px"
	 width="1154.942px" height="643.006px" viewBox="0 0 1154.942 643.006" enable-background="new 0 0 1154.942 643.006"
	 xml:space="preserve">
<g id="GRAND_ORLY">
	<g>
		<g>
			<path fill="#E60043" d="M112.275,105.76c0,17.348-3.857,30.812-11.572,40.393c-7.715,9.58-21.346,14.371-40.889,14.371
				c-17.489,0-30.141-4.947-37.957-14.844c-7.818-9.896-11.727-28.92-11.727-57.071c0-3.312,0.463-12.124,1.389-26.436
				s2.288-24.011,4.089-29.097c1.798-5.086,4.807-9.817,9.026-14.194c4.217-4.376,9.566-7.647,16.047-9.817
				c6.48-2.168,14.092-3.252,22.836-3.252c12.344,0,22.99,2.859,31.939,8.575c8.949,5.718,13.887,13.268,14.813,22.651
				l-24.996,6.979c-2.059-14.508-9.311-21.764-21.756-21.764c-9.566,0-16.228,3.767-19.981,11.296
				c-3.756,7.531-5.632,20.01-5.632,37.436v7.688c0,10.095,0.41,19.735,1.234,28.92c0.822,9.187,1.594,15.909,2.314,20.167
				c0.718,4.258,2.211,7.649,4.475,10.172c2.261,2.525,4.653,4.219,7.175,5.086c2.52,0.869,5.478,1.301,8.872,1.301
				c6.377,0,11.314-1.496,14.813-4.494c3.496-2.996,5.914-7.313,7.252-12.951c1.335-5.637,2.006-15.239,2.006-28.802h-24.07V80.33
				h50.301V105.76z"/>
			<path fill="#E60043" d="M230.621,159.104h-27.532l-30.792-70.731h-2.314v70.731h-26.539V8.415h36.723
				c29.934,0,44.9,12.854,44.9,38.56c0,11.671-2.213,20.463-6.635,26.377c-4.424,5.914-11.623,10.37-21.599,13.366L230.621,159.104z
				 M169.982,74.534c10.285-0.157,17.718-2.029,22.296-5.618c4.576-3.587,6.866-10.113,6.866-19.576
				c0-9.067-2.083-15.534-6.249-19.398c-4.166-3.863-11.29-5.796-21.37-5.796h-1.543V74.534z"/>
			<path fill="#E60043" d="M360.076,159.104h-25.582l-7.191-29.807h-41.61l-7.288,29.807h-25.256L295.58,8.415h21.756
				L360.076,159.104z M323.763,114.04l-17.276-71.495h-0.631l-16.339,71.495H323.763z"/>
			<path fill="#E60043" d="M484.13,159.104H463.3L413.153,55.679l-0.617,0.048v103.377h-23.762V8.415h21.139l50.301,103.407
				l0.617,0.089V8.415h23.299V159.104z"/>
			<path fill="#E60043" d="M523.938,8.415h38.267c18.103,0,32.375,5.225,42.816,15.672c10.439,10.45,15.662,30.103,15.662,58.963
				c0,27.837-4.579,47.472-13.732,58.904c-9.157,11.435-25.613,17.15-49.375,17.15h-33.638V8.415z M550.479,23.91v119.937
				c11.109,0,19.542-1.576,25.305-4.73c5.759-3.153,10.053-9.029,12.883-17.625c2.828-8.593,4.244-21.486,4.244-38.677
				c0-21.921-2.65-37.218-7.947-45.893c-5.299-8.673-15.61-13.011-30.936-13.011H550.479z"/>
			<path fill="#E60043" d="M710.793,83.346c0-32.699,4.19-53.855,12.575-63.469c8.383-9.612,22.192-14.419,41.429-14.419
				c22.012,0,36.646,5.378,43.897,16.134s10.878,30.119,10.878,58.089c0,25.057-1.62,42.431-4.86,52.123
				c-3.24,9.692-8.848,16.824-16.818,21.393c-7.973,4.57-18.8,6.855-32.479,6.855c-14.094,0-24.895-2.107-32.402-6.322
				c-7.51-4.217-13.091-11.053-16.741-20.508C712.618,123.766,710.793,107.142,710.793,83.346z M791.799,84.526
				c0-28.596-2.194-46.262-6.577-52.997c-4.385-6.735-10.962-10.104-19.73-10.104c-10.316,0-17.383,4.038-21.199,12.113
				c-3.818,8.075-5.726,21.683-5.726,40.826v8.272c0,21.35,1.545,36.927,4.641,46.736s10.523,14.711,22.284,14.711
				c7.221,0,13.409-2.756,18.568-8.27c5.159-5.516,7.739-20.759,7.739-45.733V84.526z"/>
			<path fill="#E60043" d="M943.627,159.104h-27.532l-30.792-70.731h-2.314v70.731h-26.539V8.415h36.723
				c29.934,0,44.9,12.854,44.9,38.56c0,11.671-2.213,20.463-6.635,26.377c-4.424,5.914-11.623,10.37-21.6,13.366L943.627,159.104z
				 M882.988,74.534c10.285-0.157,17.718-2.029,22.296-5.618c4.576-3.587,6.866-10.113,6.866-19.576
				c0-9.067-2.083-15.534-6.249-19.398c-4.166-3.863-11.29-5.796-21.37-5.796h-1.543V74.534z"/>
			<path fill="#E60043" d="M1042.994,159.104h-71.131V8.415h26.539V142.19h44.592V159.104z"/>
			<path fill="#E60043" d="M1148.379,8.415l-38.266,86.463v64.226h-26.539v-63.28l-37.34-87.41h26.306l24.443,67.897l0.579-0.201
				l24.747-67.696H1148.379z"/>
		</g>
	</g>
</g>
<g id="cadre">
	<rect x="9.765" y="167.853" fill="#004379" width="450.229" height="372.036"/>
</g>
<g id="texte">
	<g>
		<g>
			<path fill="#004379" d="M102.348,600.667c0-4.818-0.073-8.322-0.292-11.461h7.738l0.365,6.716h0.219
				c1.752-4.964,5.913-7.519,9.782-7.519c0.876,0,1.387,0.072,2.117,0.219v8.395c-0.803-0.146-1.606-0.219-2.701-0.219
				c-4.234,0-7.227,2.701-8.03,6.789c-0.146,0.803-0.219,1.752-0.219,2.7v18.469h-8.979V600.667z"/>
			<path fill="#004379" d="M134.029,609.5c0.219,6.424,5.183,9.198,10.95,9.198c4.161,0,7.081-0.657,9.854-1.606l1.314,6.132
				c-3.066,1.314-7.3,2.263-12.41,2.263c-11.534,0-18.322-7.08-18.322-17.957c0-9.854,5.985-19.125,17.373-19.125
				c11.534,0,15.33,9.489,15.33,17.3c0,1.679-0.146,2.993-0.292,3.796H134.029z M149.651,603.222
				c0.073-3.285-1.387-8.688-7.373-8.688c-5.548,0-7.884,5.037-8.249,8.688H149.651z M153.666,573.804l-8.906,10.803h-6.205
				l6.351-10.803H153.666z"/>
			<path fill="#004379" d="M164.981,616.435c1.971,1.24,5.84,2.627,9.052,2.627c3.941,0,5.693-1.679,5.693-4.015
				c0-2.409-1.46-3.577-5.84-5.183c-6.935-2.336-9.781-6.132-9.781-10.365c0-6.278,5.183-11.096,13.432-11.096
				c3.941,0,7.373,0.948,9.489,2.116l-1.825,6.278c-1.46-0.876-4.38-2.044-7.519-2.044c-3.212,0-4.964,1.605-4.964,3.796
				c0,2.263,1.679,3.285,6.205,4.964c6.497,2.263,9.417,5.548,9.49,10.804c0,6.496-5.037,11.168-14.454,11.168
				c-4.307,0-8.176-1.021-10.804-2.481L164.981,616.435z"/>
			<path fill="#004379" d="M202.138,609.5c0.219,6.424,5.183,9.198,10.949,9.198c4.161,0,7.081-0.657,9.855-1.606l1.314,6.132
				c-3.066,1.314-7.3,2.263-12.41,2.263c-11.534,0-18.323-7.08-18.323-17.957c0-9.854,5.986-19.125,17.374-19.125
				c11.533,0,15.329,9.489,15.329,17.3c0,1.679-0.146,2.993-0.292,3.796H202.138z M217.759,603.222
				c0.073-3.285-1.387-8.688-7.373-8.688c-5.548,0-7.884,5.037-8.249,8.688H217.759z"/>
			<path fill="#004379" d="M261.047,616.215c0,3.212,0.146,6.351,0.584,8.541h-8.103l-0.657-3.942h-0.219
				c-2.117,2.774-5.84,4.745-10.512,4.745c-7.153,0-11.168-5.183-11.168-10.585c0-8.905,7.957-13.504,21.096-13.432v-0.584
				c0-2.336-0.949-6.204-7.227-6.204c-3.504,0-7.154,1.095-9.563,2.628l-1.752-5.84c2.628-1.606,7.227-3.139,12.848-3.139
				c11.388,0,14.672,7.227,14.672,15.037V616.215z M252.288,607.382c-6.351-0.072-12.41,1.241-12.41,6.644
				c0,3.504,2.263,5.109,5.11,5.109c3.65,0,6.205-2.336,7.081-4.891c0.219-0.657,0.219-1.313,0.219-1.971V607.382z"/>
			<path fill="#004379" d="M302.365,614.099c0,4.233,0.146,7.737,0.292,10.657h-7.811l-0.438-5.329h-0.219
				c-1.533,2.482-5.037,6.132-11.46,6.132s-12.337-3.868-12.337-15.476v-20.877h8.979v19.344c0,5.913,1.898,9.709,6.643,9.709
				c3.65,0,5.986-2.481,6.862-4.817c0.365-0.73,0.511-1.752,0.511-2.774v-21.461h8.979V614.099z"/>
			<path fill="#004379" d="M359.96,572.927v41.828c0,3.65,0.146,7.592,0.292,10.001h-7.957l-0.438-5.621h-0.146
				c-2.117,3.942-6.424,6.424-11.534,6.424c-8.541,0-15.256-7.227-15.256-18.177c-0.073-11.898,7.373-18.979,15.913-18.979
				c4.891,0,8.395,1.971,10.001,4.599h0.146v-20.075H359.96z M350.981,604.025c0-0.73-0.073-1.679-0.219-2.409
				c-0.803-3.431-3.649-6.277-7.737-6.277c-5.767,0-8.979,5.109-8.979,11.68c0,6.569,3.212,11.314,8.906,11.314
				c3.65,0,6.862-2.481,7.738-6.351c0.219-0.803,0.292-1.68,0.292-2.628V604.025z"/>
			<path fill="#004379" d="M380.69,574.168c-1.971,6.716-5.183,14.162-7.884,18.688l-5.548,0.584
				c1.898-5.401,3.869-12.628,4.745-18.541L380.69,574.168z"/>
			<path fill="#004379" d="M387.261,609.5c0.219,6.424,5.183,9.198,10.949,9.198c4.161,0,7.081-0.657,9.855-1.606l1.314,6.132
				c-3.066,1.314-7.3,2.263-12.41,2.263c-11.534,0-18.323-7.08-18.323-17.957c0-9.854,5.986-19.125,17.374-19.125
				c11.533,0,15.329,9.489,15.329,17.3c0,1.679-0.146,2.993-0.292,3.796H387.261z M402.882,603.222
				c0.073-3.285-1.387-8.688-7.373-8.688c-5.548,0-7.884,5.037-8.249,8.688H402.882z"/>
			<path fill="#004379" d="M418.577,599.791c0-4.088-0.146-7.519-0.292-10.584h7.811l0.438,5.328h0.219
				c1.606-2.773,5.475-6.131,11.388-6.131c6.205,0,12.629,4.015,12.629,15.256v21.097h-8.979v-20.074
				c0-5.11-1.898-8.979-6.789-8.979c-3.577,0-6.059,2.556-7.008,5.256c-0.292,0.73-0.438,1.825-0.438,2.848v20.95h-8.979V599.791z"
				/>
			<path fill="#004379" d="M470.261,580.082v9.125h8.541v6.716h-8.541v15.694c0,4.38,1.168,6.57,4.599,6.57
				c1.606,0,2.482-0.073,3.504-0.365l0.146,6.789c-1.314,0.511-3.723,0.948-6.497,0.948c-3.357,0-6.059-1.095-7.737-2.92
				c-1.971-2.044-2.847-5.329-2.847-10.001v-16.716h-5.037v-6.716h5.037v-6.643L470.261,580.082z"/>
			<path fill="#004379" d="M485.591,600.667c0-4.818-0.073-8.322-0.292-11.461h7.738l0.365,6.716h0.219
				c1.752-4.964,5.913-7.519,9.782-7.519c0.876,0,1.387,0.072,2.117,0.219v8.395c-0.803-0.146-1.605-0.219-2.701-0.219
				c-4.234,0-7.227,2.701-8.03,6.789c-0.146,0.803-0.219,1.752-0.219,2.7v18.469h-8.979V600.667z"/>
			<path fill="#004379" d="M517.272,609.5c0.219,6.424,5.183,9.198,10.95,9.198c4.161,0,7.081-0.657,9.854-1.606l1.314,6.132
				c-3.066,1.314-7.3,2.263-12.41,2.263c-11.534,0-18.322-7.08-18.322-17.957c0-9.854,5.985-19.125,17.373-19.125
				c11.534,0,15.33,9.489,15.33,17.3c0,1.679-0.146,2.993-0.292,3.796H517.272z M532.895,603.222
				c0.073-3.285-1.387-8.688-7.373-8.688c-5.548,0-7.884,5.037-8.249,8.688H532.895z"/>
			<path fill="#004379" d="M548.589,601.032c0-4.672-0.146-8.468-0.292-11.825h7.884l0.438,5.475h0.146
				c2.628-4.015,6.789-6.277,12.191-6.277c8.176,0,14.964,7.008,14.964,18.104c0,12.848-8.103,19.052-16.206,19.052
				c-4.453,0-8.176-1.897-10.001-4.745h-0.146v18.396h-8.979V601.032z M557.568,609.865c0,0.876,0.073,1.679,0.219,2.482
				c0.949,3.649,4.088,6.277,7.957,6.277c5.693,0,9.052-4.745,9.052-11.753c0-6.277-3.066-11.388-8.833-11.388
				c-3.723,0-7.154,2.701-8.103,6.643c-0.146,0.73-0.292,1.533-0.292,2.264V609.865z"/>
			<path fill="#004379" d="M591.294,600.667c0-4.818-0.073-8.322-0.292-11.461h7.738l0.365,6.716h0.219
				c1.752-4.964,5.913-7.519,9.782-7.519c0.876,0,1.387,0.072,2.117,0.219v8.395c-0.803-0.146-1.606-0.219-2.701-0.219
				c-4.234,0-7.227,2.701-8.03,6.789c-0.146,0.803-0.219,1.752-0.219,2.7v18.469h-8.979V600.667z"/>
			<path fill="#004379" d="M626.844,579.279c0,2.628-1.971,4.817-5.11,4.817c-2.993,0-4.964-2.189-4.964-4.817
				c0-2.774,2.044-4.891,5.037-4.891C624.873,574.388,626.771,576.504,626.844,579.279z M617.281,624.756v-35.55h8.979v35.55
				H617.281z"/>
			<path fill="#004379" d="M635.604,616.435c1.971,1.24,5.84,2.627,9.052,2.627c3.942,0,5.694-1.679,5.694-4.015
				c0-2.409-1.46-3.577-5.84-5.183c-6.936-2.336-9.782-6.132-9.782-10.365c0-6.278,5.183-11.096,13.432-11.096
				c3.942,0,7.373,0.948,9.49,2.116l-1.825,6.278c-1.46-0.876-4.38-2.044-7.519-2.044c-3.212,0-4.964,1.605-4.964,3.796
				c0,2.263,1.679,3.285,6.205,4.964c6.496,2.263,9.416,5.548,9.489,10.804c0,6.496-5.037,11.168-14.454,11.168
				c-4.307,0-8.176-1.021-10.803-2.481L635.604,616.435z"/>
			<path fill="#004379" d="M672.76,609.5c0.219,6.424,5.184,9.198,10.95,9.198c4.161,0,7.081-0.657,9.854-1.606l1.313,6.132
				c-3.065,1.314-7.3,2.263-12.409,2.263c-11.533,0-18.322-7.08-18.322-17.957c0-9.854,5.985-19.125,17.373-19.125
				c11.534,0,15.33,9.489,15.33,17.3c0,1.679-0.146,2.993-0.292,3.796H672.76z M688.382,603.222
				c0.073-3.285-1.388-8.688-7.373-8.688c-5.548,0-7.884,5.037-8.249,8.688H688.382z"/>
			<path fill="#004379" d="M751.962,572.927v41.828c0,3.65,0.146,7.592,0.292,10.001h-7.956l-0.438-5.621h-0.146
				c-2.117,3.942-6.424,6.424-11.534,6.424c-8.541,0-15.257-7.227-15.257-18.177c-0.072-11.898,7.373-18.979,15.914-18.979
				c4.891,0,8.395,1.971,10,4.599h0.146v-20.075H751.962z M742.983,604.025c0-0.73-0.073-1.679-0.219-2.409
				c-0.803-3.431-3.65-6.277-7.738-6.277c-5.767,0-8.979,5.109-8.979,11.68c0,6.569,3.212,11.314,8.906,11.314
				c3.649,0,6.861-2.481,7.737-6.351c0.219-0.803,0.292-1.68,0.292-2.628V604.025z"/>
			<path fill="#004379" d="M767.95,609.5c0.219,6.424,5.183,9.198,10.949,9.198c4.161,0,7.081-0.657,9.855-1.606l1.313,6.132
				c-3.065,1.314-7.3,2.263-12.409,2.263c-11.534,0-18.323-7.08-18.323-17.957c0-9.854,5.986-19.125,17.374-19.125
				c11.533,0,15.329,9.489,15.329,17.3c0,1.679-0.146,2.993-0.292,3.796H767.95z M783.571,603.222
				c0.073-3.285-1.387-8.688-7.373-8.688c-5.547,0-7.883,5.037-8.248,8.688H783.571z"/>
			<path fill="#004379" d="M820.07,589.207l5.767,18.03c1.022,3.139,1.752,5.985,2.409,8.905h0.219
				c0.657-2.92,1.46-5.693,2.409-8.905l5.693-18.03h9.417l-13.577,35.55h-8.833l-13.213-35.55H820.07z"/>
			<path fill="#004379" d="M884.311,606.653c0,13.066-9.198,18.906-18.25,18.906c-10.001,0-17.812-6.861-17.812-18.322
				c0-11.68,7.665-18.833,18.396-18.833C877.229,588.404,884.311,595.849,884.311,606.653z M857.521,607.018
				c0,6.861,3.431,12.044,8.832,12.044c5.11,0,8.688-4.963,8.688-12.19c0-5.548-2.482-11.972-8.614-11.972
				C860.075,594.9,857.521,601.105,857.521,607.018z"/>
			<path fill="#004379" d="M901.977,580.082v9.125h8.541v6.716h-8.541v15.694c0,4.38,1.168,6.57,4.599,6.57
				c1.606,0,2.482-0.073,3.504-0.365l0.146,6.789c-1.314,0.511-3.723,0.948-6.497,0.948c-3.357,0-6.059-1.095-7.737-2.92
				c-1.971-2.044-2.848-5.329-2.848-10.001v-16.716h-5.036v-6.716h5.036v-6.643L901.977,580.082z"/>
			<path fill="#004379" d="M917.306,600.667c0-4.818-0.072-8.322-0.291-11.461h7.737l0.365,6.716h0.219
				c1.752-4.964,5.913-7.519,9.782-7.519c0.875,0,1.387,0.072,2.116,0.219v8.395c-0.803-0.146-1.605-0.219-2.7-0.219
				c-4.234,0-7.228,2.701-8.03,6.789c-0.146,0.803-0.219,1.752-0.219,2.7v18.469h-8.979V600.667z"/>
			<path fill="#004379" d="M948.988,609.5c0.219,6.424,5.183,9.198,10.949,9.198c4.161,0,7.081-0.657,9.854-1.606l1.314,6.132
				c-3.066,1.314-7.3,2.263-12.41,2.263c-11.533,0-18.322-7.08-18.322-17.957c0-9.854,5.986-19.125,17.374-19.125
				c11.533,0,15.329,9.489,15.329,17.3c0,1.679-0.146,2.993-0.292,3.796H948.988z M964.609,603.222
				c0.073-3.285-1.387-8.688-7.372-8.688c-5.549,0-7.885,5.037-8.249,8.688H964.609z"/>
			<path fill="#004379" d="M1031.038,623.37c-2.117,1.021-6.789,2.189-12.775,2.189c-15.621,0-25.111-9.781-25.111-24.819
				c0-16.205,11.314-25.987,26.353-25.987c5.913,0,10.073,1.241,11.898,2.19l-1.897,7.153c-2.336-1.021-5.621-1.897-9.636-1.897
				c-10.001,0-17.228,6.277-17.228,18.104c0,10.877,6.277,17.738,17.154,17.738c3.577,0,7.373-0.73,9.781-1.752L1031.038,623.37z"/>
			<path fill="#004379" d="M1072.065,623.37c-2.117,1.021-6.789,2.189-12.775,2.189c-15.621,0-25.111-9.781-25.111-24.819
				c0-16.205,11.314-25.987,26.353-25.987c5.913,0,10.073,1.241,11.898,2.19l-1.897,7.153c-2.336-1.021-5.621-1.897-9.636-1.897
				c-10.001,0-17.228,6.277-17.228,18.104c0,10.877,6.277,17.738,17.154,17.738c3.577,0,7.373-0.73,9.781-1.752L1072.065,623.37z"/>
			<path fill="#004379" d="M1088.71,575.556v49.2h-8.979v-49.2H1088.71z"/>
		</g>
	</g>
</g>
<g id="Un">
	<path fill="#004379" d="M20.934,582.279v24.37c0,8.186,3.302,11.969,8.286,11.969c5.344,0,8.526-3.783,8.526-11.969v-24.37h7.385
		v23.874c0,12.898-6.424,18.604-16.151,18.604c-9.367,0-15.431-5.395-15.431-18.541v-23.937H20.934z"/>
	<path fill="#004379" d="M54.3,602.867c0-3.473-0.12-6.388-0.24-8.991h6.425l0.36,4.526h0.18c1.321-2.356,4.503-5.209,9.367-5.209
		c5.104,0,10.387,3.411,10.387,12.96v17.922h-7.385v-17.053c0-4.342-1.561-7.628-5.584-7.628c-2.942,0-4.984,2.171-5.764,4.465
		c-0.24,0.62-0.36,1.55-0.36,2.419v17.797H54.3V602.867z"/>
</g>
<g id="p_du_cadre">
	<path fill="#FFFFFF" d="M370.879,262.139c0,0,8.25,106.75-100,107.25h-78v171.25h-38.75v-373.5h114.25
		C268.379,167.139,369.879,154.389,370.879,262.139z"/>
</g>
<g id="interieur_du_P_du_cadre">
	<path fill="#004379" d="M193.129,206.139h88.25c0,0,51.5,1.5,50.25,58.5c0,0,3.5,62.75-54.5,62.75l-84,1V206.139z"/>
</g>
<g id="I_cadre">
	<polygon fill="#FFFFFF" points="424.129,254.389 424.129,539.639 378.629,539.639 378.629,165.672 424.129,165.672 	"/>
</g>
<g id="fleche_rouge">
	<polygon fill="#E60043" points="8.379,175.389 172.379,352.889 8.129,530.389 8.129,461.889 84.379,377.889 8.129,377.889 
		8.129,329.639 83.379,329.639 8.129,248.389 	"/>
</g>
<g id="ato">
	<path fill="#004379" d="M608.629,324.889c0,0,37.75-1.75,68.25,24.75v-22.5h37v213.25h-37v-19.75c0,0-21.5,24.75-69.75,25
		c0,0-101,7.477-102-110.387C505.129,435.252,499.629,326.889,608.629,324.889z"/>
	<polygon fill="#004379" points="777.629,246.139 816.629,246.139 816.629,326.889 844.879,326.889 844.879,370.389 
		816.379,370.389 816.379,540.639 777.629,540.639 777.629,370.389 747.629,370.389 747.629,326.639 777.629,326.639 	"/>
	<path fill="#004379" d="M966.129,327.139c0,0,108.25-4.5,106.5,109.25c0,0,10.5,104.75-110.5,107c0,0-102.75,3.977-103-108.137
		C859.129,435.252,851.129,328.639,966.129,327.139z"/>
	<path fill="#004379" d="M1065.629,345.389v-31h-11.25v-6.25h29.5v6.5h-11.021c0,0,0.614,30.135,0,30.75
		S1065.629,345.389,1065.629,345.389z"/>
	<polygon fill="#004379" points="1088.129,345.663 1088.129,308.139 1099.629,308.139 1105.879,333.889 1112.629,308.139 
		1123.129,308.139 1123.129,345.663 1116.129,345.663 1116.629,317.639 1108.879,345.663 1102.379,345.663 1095.129,316.889 
		1095.129,345.663 	"/>
</g>
<g id="inter_a_de_ato">
	<path fill="#FFFFFF" d="M607.129,355.612c0,0,66.25-5.652,65.75,79.688c0,0,5,80.84-65.75,81.09c0,0-65.75,0.395-64.25-80.428
		C542.879,435.961,540.879,356.084,607.129,355.612z"/>
</g>
<g id="inter_ato">
	<path fill="#FFFFFF" d="M963.629,355.889c0,0,69.423-9.269,69.5,79.372c0,0,4.609,79.128-67.195,79.378
		c0,0-66.305,4.5-67.555-76.75C898.379,437.889,893.129,358.139,963.629,355.889z"/>
</g>
</svg>
